<?xml version="1.0" encoding="utf-8"?>
<!-- Generator: Adobe Illustrator 21.0.1, SVG Export Plug-In . SVG Version: 6.00 Build 0)  -->
<svg version="1.1" id="Layer_1" xmlns="http://www.w3.org/2000/svg" xmlns:xlink="http://www.w3.org/1999/xlink" x="0px" y="0px"
	 viewBox="0 0 274.1 174.7" style="enable-background:new 0 0 274.1 174.7;" xml:space="preserve">
<style type="text/css">
	.st0{fill:#B5B5B6;}
</style>
<g>
	<polygon class="st0" points="213.5,45.5 213.5,18.7 201.1,18.7 201.1,20.6 204.6,20.6 204.6,45.5 200.1,45.5 200.1,47.3 218,47.3 
		218,45.5 	"/>
	<path class="st0" d="M36.9,1.4h-1.6c-0.1,1.4-0.8,2-2.2,2C30.4,3.4,26.4,0,21.6,0C8.1,0,0,13.3,0,25c0,11.8,7.8,23.4,20.8,23.4
		c7.9,0,10.8-3.7,12.9-3.7c1.4,0,1.6,1.2,1.6,2.7h1.8V31.2h-1.8L35,33.4c-0.9,5.3-5.1,13.2-13.5,13.2c-7.5,0-10.4-6.5-10.4-22.4
		C11,7.4,15,1.8,21.6,1.8c7.5,0,12.6,8.4,13.7,15.1h1.6V1.4z"/>
	<path class="st0" d="M60,39.6c-0.1,3.4-2.1,6.3-5.1,6.3c-4.4,0-4.6-3.7-4.6-6.6c0-3.4,0.4-5.7,4.6-6.2l5.1-0.5V39.6z M71.8,41.7
		c0,1.7-1.1,3.6-1.8,3.6c-1.2,0-1.4-1.2-1.4-3.2V27.2c0-7.4-6.9-9.2-13.6-9.2c-6.5,0-11.2,3.2-11.2,6.8c0,2.3,1.3,4.2,4.2,4.2
		c2.5,0,4-1.6,4-3.9c0-3.3-3.4-3.3-3.4-3.4c0-1.5,3.8-1.9,6-1.9c4.9,0,5.5,1.8,5.5,5.7v5.4l-6.4,0.5c-5.9,0.5-12.3,2-12.3,8.8
		c0,5.6,5.1,7.9,10,7.9c2.5,0,7-1,8.7-4.1c1.2,2.7,3.6,4.1,6.5,4.1c4.2,0,6.9-2.5,6.9-6.3H71.8z"/>
	<polygon class="st0" points="220.5,157 220.5,130.1 207.1,130.1 207.1,132 211.5,132 211.5,157 207.1,157 207.1,158.7 225,158.7 
		225,157 	"/>
	<path class="st0" d="M52.2,59.9l0-1.8H37.4L26.7,88.8L16.3,58H0v1.9h4.4v37c0,2.8-0.7,4.9-4.4,4.9v1.8h11.2v-1.8H11
		c-3.5,0-4.9-0.3-4.9-5.5V59.6h0.1l15.5,44.1h1.8l15.1-43.3h0.1v41.5h-4.3v1.8h17.8v-1.8H48v-42H52.2z"/>
	<path class="st0" d="M62.6,86.2v-4.4c0-4.3,1.9-5.7,4.1-5.7c3.1,0,4.1,2.1,4.1,5.7v4.4H62.6z M62.6,88h17.9
		c-0.1-7-6.5-13.7-13.4-13.6c-7.6,0-14.3,6.6-14.3,15.4c0,8.4,6.2,14.7,14.5,14.7c8,0,11.9-4.9,13.4-11.3h-1.8
		c-1.4,6-4.6,9.5-9.6,9.5c-6,0-6.7-4.7-6.7-9.1V88z"/>
	<path class="st0" d="M137,141.3v-4.4c0-4.3,1.9-5.7,4.1-5.7c3.1,0,4.1,2.1,4.1,5.7v4.4H137z M137,143h17.9
		c-0.1-7-6.5-13.7-13.4-13.6c-7.6,0-14.3,6.6-14.3,15.4c0,8.4,6.2,14.7,14.5,14.7c8,0,11.9-4.9,13.4-11.3h-1.8
		c-1.4,6-4.6,9.5-9.6,9.5c-6,0-6.7-4.7-6.7-9.1V143z"/>
	<polygon class="st0" points="80.6,58.1 80.6,59.8 85.1,59.8 85.1,101.8 80.6,101.8 80.6,103.6 98.5,103.6 98.5,101.8 94,101.8 
		94,58.1 	"/>
	<polygon class="st0" points="99.7,58.1 99.7,59.8 104.2,59.8 104.2,101.8 99.7,101.8 99.7,103.6 117.6,103.6 117.6,101.8 
		113.1,101.8 113.1,58.1 	"/>
	<path class="st0" d="M138.2,95.8c0,4.9-2,6.9-5.3,6.9c-3.3,0-5.3-2-5.3-6.9V83c0-4.9,2-6.9,5.3-6.9c3.3,0,5.3,2,5.3,6.9V95.8z
		 M148.3,89.4c0-8.9-6.9-15-15.4-15c-8.6,0-15.4,6.2-15.4,15c0,8.9,6.9,15,15.4,15C141.4,104.4,148.3,98.3,148.3,89.4"/>
	<path class="st0" d="M0,114.8h4.5v28.8c0,10,6.9,16.1,17.5,16.1c11.9,0,17.1-6.3,17.1-15.8v-24.6c0-3.8,1-4.5,3.4-4.5h1.3v-1.7
		H32.4v1.7h0.8c3.3,0,3.8,1,3.8,4.8v25c0,8.8-5.5,12.8-11,12.8c-9.5,0-11.3-6.4-11.9-14.6v-27.9h4.2v-1.7H0V114.8z"/>
	<path class="st0" d="M112.3,159.5h1.7l9.6-22.7c1.9-4.2,3-4.8,4.5-4.8h0.6v-1.8h-10.1v1.8h1.2c1.9,0,2.7-0.1,2.7,1.6
		c0,1-0.3,2.1-1.1,3.9l-4.4,10.4L110,132h3.6v-1.8H97.3v1.8h3L112.3,159.5z"/>
	<path class="st0" d="M184.5,159.5h1.5c0.3-1,1-1.6,2.3-1.6c1.7,0,3.7,1.6,7.3,1.6c6.2,0,10.4-5.3,10.4-10.6c0-7.9-5.4-8.5-12.4-9.5
		c-3.6-0.5-5.7-1-5.7-3.9c0-3,2.7-4.3,6.2-4.3c4.9,0,6.7,3.2,8.4,7.4h1.5l0-9.2h-1.5c0,0.8-0.7,1.4-1.9,1.4c-2.1,0-3.8-1.4-6.7-1.4
		c-6.5,0-9.7,5.5-9.7,9.7c0,8.4,6.4,9.1,11.3,9.7c4.7,0.6,6.4,0.9,6.4,3.9c0,3.4-2.9,5-6.4,5c-4.9,0-8.3-4.3-9.5-9h-1.5V159.5z"/>
	<polygon class="st0" points="94.9,157 94.9,130.1 81.5,130.1 81.5,132 86,132 86,157 81.5,157 81.5,158.7 99.4,158.7 99.4,157 	"/>
	<path class="st0" d="M86,121.2c0,2.5,2,4.5,4.5,4.5c2.5,0,4.5-2,4.5-4.5c0-2.5-2-4.5-4.5-4.5C88,116.7,86,118.7,86,121.2"/>
	<path class="st0" d="M211.5,121.2c0,2.5,2,4.5,4.5,4.5c2.5,0,4.5-2,4.5-4.5c0-2.5-2-4.5-4.5-4.5
		C213.5,116.7,211.5,118.7,211.5,121.2"/>
	<path class="st0" d="M149.8,29.9v-4.4c0-4.3,1.9-5.7,4.1-5.7c3.1,0,4.1,2.1,4.1,5.7v4.4H149.8z M149.8,31.6h17.9
		c-0.1-7-6.5-13.7-13.4-13.6c-7.6,0-14.3,6.6-14.3,15.4c0,8.4,6.2,14.7,14.5,14.7c8,0,11.9-4.9,13.4-11.3h-1.8
		c-1.4,6-4.6,9.5-9.6,9.5c-6,0-6.7-4.7-6.7-9.1V31.6z"/>
	<path class="st0" d="M228,29.9v-4.4c0-4.3,1.9-5.7,4.1-5.7c2.3,0,4.1,1.3,4.1,5.7v4.4H228z M228,31.6h17.9
		c-0.1-7-6.5-13.7-13.4-13.6c-7.6,0-14.3,6.6-14.3,15.4c0,8.4,6.2,14.7,14.5,14.7c8,0,11.9-4.9,13.4-11.3h-1.8
		c-1.4,6-4.6,9.5-9.6,9.5c-6,0-6.7-4.7-6.7-9.1V31.6z"/>
	<path class="st0" d="M75.8,157v-17.5c0-7-3-10.3-9.1-10.3c-4.3,0-8.7,2.5-10.5,6.3h0v-5.2H42.7v1.7h4.5v25h-4.5v1.8H60V157h-3.8
		v-17.1c0.6-2.4,3.6-8,7.1-8c2.4,0,3.5,0.8,3.5,5.2V157h-3.7v1.8h17.1V157H75.8z"/>
	<path class="st0" d="M181.3,101.9V84.4c0-7-3-10.3-9.1-10.3c-4.3,0-8.7,2.5-10.5,6.3h0v-5.2h-13.4v1.7h4.5v25h-4.5v1.8h17.2v-1.8
		h-3.8V84.8c0.6-2.4,3.6-8,7.1-8c2.4,0,3.5,0.8,3.5,5.2v19.9h-3.7v1.8h17.1v-1.8H181.3z"/>
	<path class="st0" d="M135.5,45.6V28.1c0-7-3-10.3-9.1-10.3c-4.3,0-8.7,2.5-10.5,6.3h0v-5.2h-13.4v1.7h4.5v25h-4.5v1.8h17.2v-1.8
		h-3.8V28.5c0.6-2.4,3.6-8,7.1-8c2.4,0,3.5,0.8,3.5,5.2v19.9h-3.7v1.8H140v-1.8H135.5z"/>
	<path class="st0" d="M204.6,9.8c0,2.5,2,4.5,4.5,4.5c2.5,0,4.5-2,4.5-4.5c0-2.5-2-4.5-4.5-4.5C206.6,5.4,204.6,7.4,204.6,9.8"/>
	<path class="st0" d="M264,130.1v1.9c2.8,0,4,0.3,4,1.5c0,1-0.3,2.1-1.1,3.9l-4.4,10.4l-7-15.8h3.7v-1.9h-22.3v-13.9h-1.2
		c0,6.9-4.7,13.9-11.2,13.9v1.9h3.4v20.1c0,6.2,5.3,7.4,7.1,7.4c4,0,6.6-1.6,8.6-5l-1.4-0.8c-0.8,1.2-1.8,2.7-3.4,2.7
		c-1.3,0-2-0.9-2-3.1V132h9l11.8,27.3l-4.1,9.7l0,0c0,0,0,0,0,0l0,0c-0.1,0.2-0.3,0.3-0.5,0.3c-0.2,0-0.4-0.2-0.5-0.4c0,0,0,0,0,0
		c-0.5-1.9-2.2-3.2-4.3-3.2c-2.5,0-4.5,2-4.5,4.5c0,1.7,1,3.2,2.4,4c0,0,0,0,0,0c0,0,0.1,0,0.1,0.1c0.1,0,0.2,0.1,0.3,0.1
		c0.5,0.2,1,0.3,1.6,0.3c3.8,0.3,5.7-2.5,7-5.3c0.3-0.6,0.6-1.3,0.8-1.9c0.6-1.4,1.6-3.7,2.7-6.5l0,0l1.1-2.6l0,0l9.1-21.6
		c1.9-4.2,2.7-4.8,5-4.8h0v-1.9H264z"/>
	<path class="st0" d="M95.9,17.7c-4.1,0-7.3,2.9-8.6,6.1h-0.1v-4.9H74v1.8h4.5v24.9H74v1.8h19.4v-1.8h-6v-14c0-4.2,1.1-8.4,3.8-10.8
		c0.2-0.1,0.4-0.1,0.6-0.1c0.2,0.1,0.3,0.3,0.3,0.6l0,0c-0.2,0.5-0.3,1.1-0.3,1.8c-0.1,2.4,1.9,4.2,4.4,4.2c3.1,0,4.9-2.3,4.9-4.7
		C101.1,19.6,99,17.7,95.9,17.7z"/>
	<path class="st0" d="M193.5,19.8c0.1,0,0.3-0.1,0.4,0c0.1,0.1,0.1,0.2,0,0.4l0,0c-0.4,0.7-0.5,1.5-0.2,2.4c0.3,0.9,1.1,1.6,2,1.8
		c1.9,0.4,3.5-0.9,3.5-2.7c0-1.1-0.7-2-1.5-2.5c-0.8-0.5-1.8-0.8-2.9-0.8c-1.7,0-3.5,0.9-4.8,2c0,0,0,0,0,0
		c-0.3-0.2-0.6-0.4-0.9-0.6c-1.8-1-4.1-1.7-7.2-1.7c-5.4,0-11.3,3.6-11.3,9.5c0,3.6,1.9,6.4,5.4,7.9v0.1c-2.5,0.3-6.5,2.1-6.5,7.5
		c0,3.2,1.5,5.7,4.2,6.5v0.1c-2.6,0.7-5.6,3.3-5.6,6.4c0,4.8,5.6,8.5,12.8,8.5c9,0,14.9-6.1,14.9-14c0-6.3-3.1-9.1-9.5-9h-10.8
		c-1.6,0-2.7-0.1-2.7-1.8c0-1.6,2.5-3.4,4.9-3.4c0.4,0,1.1,0.3,1.3,0.4c0.8,0.3,1.6,0.4,2.7,0.4c5.6,0,11.5-3.2,11.5-9.3
		c0-1.9-0.8-4.5-2.4-6.1c-0.1-0.1-0.1-0.2,0-0.3c0.6-0.5,1.3-0.9,1.7-1.1C193,20,193.2,19.9,193.5,19.8L193.5,19.8z M184.9,49.6
		c6.5,0,8.2,0.3,8.2,4.2c0,4.7-5.8,9.1-12.3,9.1c-5.8,0-8.6-3.6-8.8-6.7c0-2.9,1.4-4.7,3.2-6.6H184.9z M186,27.5
		c0,7.5-1.7,7.8-4.1,7.8c-2.6,0-4-0.5-4-8c0-5.3,0.6-7.5,4-7.5C184.9,19.8,185.9,20,186,27.5L186,27.5z"/>
	<path class="st0" d="M177.6,129c-4.1,0-7.3,2.9-8.6,6.1h-0.1v-4.9h-13.3v1.8h4.5v24.9h-4.5v1.8H175v-1.8h-6v-14
		c0-4.2,1.1-8.4,3.8-10.8c0.2-0.1,0.4-0.1,0.6-0.1c0.2,0.1,0.3,0.3,0.3,0.6l0,0c-0.2,0.5-0.3,1.1-0.3,1.8c-0.1,2.4,1.9,4.2,4.4,4.2
		c3.1,0,4.9-2.3,4.9-4.7C182.7,130.8,180.7,129,177.6,129z"/>
</g>
</svg>
