<svg id="Default" xmlns="http://www.w3.org/2000/svg" viewBox="0 0 204.64 70.75"><title>Artboard 3</title><path d="M10.37,60.38A35.36,35.36,0,0,1,35.38,0h51a3.5,3.5,0,0,1,0,7h-51a28.38,28.38,0,1,0,0,56.75h51a28.41,28.41,0,0,0,28.38-28.38,3.5,3.5,0,1,1,7,0A35.42,35.42,0,0,1,86.38,70.75h-51A35.27,35.27,0,0,1,10.37,60.38Z"/><path d="M115.78,69.73a3.5,3.5,0,0,1,2.47-6h51a28.38,28.38,0,0,0,0-56.75h-51A28.41,28.41,0,0,0,89.88,35.38a3.5,3.5,0,0,1-7,0A35.42,35.42,0,0,1,118.26,0h51a35.38,35.38,0,1,1,0,70.75h-51A3.49,3.49,0,0,1,115.78,69.73Z"/></svg>