<?xml version="1.0" encoding="utf-8"?>
<!-- Generator: Adobe Illustrator 21.0.1, SVG Export Plug-In . SVG Version: 6.00 Build 0)  -->
<svg version="1.1" id="Layer_1" xmlns="http://www.w3.org/2000/svg" xmlns:xlink="http://www.w3.org/1999/xlink" x="0px" y="0px"
	 viewBox="0 0 413.5 211" style="enable-background:new 0 0 413.5 211;" xml:space="preserve">
<style type="text/css">
	.st0{fill:#B5B5B5;}
</style>
<g id="QLSeOm.tif">
	<g>
		<path class="st0" d="M356.4,0.9c4.2,3.8,4,7.8,2.1,13.2c-21.8,62.3-43.4,124.6-65,186.9c-0.4,1.1-0.8,2.2-1.3,3.3
			c-2.2,5.3-6.5,7.7-10.9,6c-4.5-1.7-6.4-6.2-4.6-11.6c2.6-7.7,5.3-15.4,8-23.1C304,120.1,323.3,64.5,342.7,9
			c1.1-3.1,0.7-3.2,3.4-6.5C348,0.2,354-0.9,356.4,0.9z"/>
		<path class="st0" d="M413.5,135.7c-2.1,4.6-5.6,6.4-10.7,6.3c-19.2-0.2-38.3-0.1-57.5-0.1c-6.7,0-9.9-2.4-10-7.7
			c-0.1-5.5,3.2-8.6,9.8-8.6c19.3-0.1,38.7,0.1,58-0.1c4.9,0,8.2,2.1,10.5,6.2C413.5,133,413.5,134.4,413.5,135.7z"/>
		<path class="st0" d="M9.3,66.6c0-31.7,19.8-55.8,52.9-62.7c30.9-6.5,59.3-1.2,82.8,21.5c4.9,4.7,9.1,10.2,13.2,15.6
			c3.7,4.9,2.9,9.7-1.4,12.6c-4.1,2.7-8.6,1.6-12-3.2c-10.8-15.6-24.6-27.3-43.7-30.8c-22.2-4-43.6-2.3-61.6,13.3
			C19.8,50,17.1,94.6,53.5,106c7,2.2,9.6,6.6,7.3,11.7c-1.8,4-5.6,5.7-10.3,4.4C26.4,115.5,8.5,95.1,9.3,66.6z"/>
		<path class="st0" d="M85.7,211c-32.8-0.5-58.3-9.3-77.3-32.5c-2.5-3.1-4.7-6.4-6.8-9.9c-2.8-4.7-1.8-9.3,2.2-11.8
			c4-2.6,8.5-1.5,11.5,3.3c11.6,18.7,28.5,29.5,50,33c20.2,3.3,39.9,2,58-8.5c22.6-13,30-42.2,16.6-64.6c-2.1-3.5-2.9-7.3-0.1-10.1
			c1.9-1.9,5.6-3.3,8.2-2.8c2.4,0.4,5.1,3.2,6.5,5.6c10.7,19.2,10.9,39.2,2,58.9c-10.1,22.3-28.9,33.1-52.1,37.4
			C97,210.2,89.5,210.5,85.7,211z"/>
		<path class="st0" d="M262.7,106.2c0.1,21.9-14.7,37.6-35.4,37.7c-21.3,0.1-37-15.8-36.9-37.5c0-21,15.3-36.8,35.8-36.9
			C247.4,69.5,262.6,84.8,262.7,106.2z M246.4,107.1c0-12.9-7.8-21.2-19.9-21.2c-11.8,0-19,7.6-19.1,20
			c-0.1,13.5,7.3,21.5,19.8,21.6C239.3,127.5,246.4,120,246.4,107.1z"/>
	</g>
</g>
</svg>
