<svg id="Layer_1" data-name="Layer 1" xmlns="http://www.w3.org/2000/svg" xmlns:xlink="http://www.w3.org/1999/xlink" viewBox="0 0 2522 1988"><defs><style>.cls-1{fill:none;clip-rule:evenodd;}.cls-2{clip-path:url(#clip-path);}.cls-3{fill:#f8e6ce;}.cls-4{clip-path:url(#clip-path-2);}.cls-5{clip-path:url(#clip-path-3);}.cls-6{fill:#e2e2e2;}.cls-7{fill:#313131;}</style><clipPath id="clip-path"><path class="cls-1" d="M103.73,82.53H93.08V370.44H381V82.53H242.84L233.68,70.2A19.1,19.1,0,0,0,220,63.33H124.1a17,17,0,0,0-13,7.26Z"/></clipPath><clipPath id="clip-path-2"><path class="cls-1" d="M103.73,475.77H93.08V763.69H381V475.77H242.84l-9.15-12.33A19.1,19.1,0,0,0,220,456.58H124.1a17,17,0,0,0-13,7.26Z"/></clipPath><clipPath id="clip-path-3"><path class="cls-1" d="M103.73,869H93.08v287.92H381V869H242.84l-9.15-12.33A19.1,19.1,0,0,0,220,849.83H124.1a17,17,0,0,0-13,7.26Z"/></clipPath></defs><title>Artboard 1 copy</title><g class="cls-2"><rect class="cls-3" x="82.42" y="52.67" width="309.24" height="328.44"/></g><g class="cls-4"><rect class="cls-3" x="82.42" y="445.92" width="309.24" height="328.44"/></g><g class="cls-5"><rect class="cls-3" x="82.42" y="839.16" width="309.24" height="328.44"/></g><rect class="cls-6" x="93.08" y="1252.67" width="287.92" height="287.92"/><path class="cls-7" d="M488.35,1363.83a5.67,5.67,0,0,1-.52,2.42,7,7,0,0,1-1.4,2,6.42,6.42,0,0,1-2,1.38,6.25,6.25,0,0,1-2.48.5,5.89,5.89,0,0,1-2.42-.5,6.27,6.27,0,0,1-2-1.37,6.8,6.8,0,0,1-1.35-2,5.9,5.9,0,0,1-.5-2.42,6.26,6.26,0,0,1,.5-2.48,6.65,6.65,0,0,1,1.35-2,6.3,6.3,0,0,1,2-1.37,5.91,5.91,0,0,1,2.42-.5,6.26,6.26,0,0,1,2.48.5,6.45,6.45,0,0,1,2,1.38,6.81,6.81,0,0,1,1.4,2A6,6,0,0,1,488.35,1363.83Zm-1.9,15.9v50.65h-8.9v-50.65Z"/><path class="cls-7" d="M509.45,1387.08a30,30,0,0,1,3.5-3.35,23,23,0,0,1,3.92-2.57,19.94,19.94,0,0,1,4.4-1.65,20.92,20.92,0,0,1,5-.58,18.3,18.3,0,0,1,7.33,1.38,14.19,14.19,0,0,1,5.3,3.9,17.23,17.23,0,0,1,3.23,6.08,26.45,26.45,0,0,1,1.1,7.85v32.25h-9v-32.25q0-5.75-2.62-8.92t-8-3.17a15,15,0,0,0-7.37,1.9,24.28,24.28,0,0,0-6.33,5.15v37.3h-9v-50.65h5.35a2.2,2.2,0,0,1,2.35,1.85Z"/><path class="cls-7" d="M598.75,1356.73v73.65h-5.3a2.27,2.27,0,0,1-2.4-1.85l-.8-6.15a27.59,27.59,0,0,1-7.4,6.3,18.82,18.82,0,0,1-9.6,2.4,18.29,18.29,0,0,1-7.9-1.67,16.37,16.37,0,0,1-6-4.93,23.44,23.44,0,0,1-3.85-8.1,41.7,41.7,0,0,1-1.35-11.15,35,35,0,0,1,1.5-10.42,25.69,25.69,0,0,1,4.3-8.37,20,20,0,0,1,6.88-5.58,20.34,20.34,0,0,1,9.17-2,18.49,18.49,0,0,1,8,1.58,19.32,19.32,0,0,1,5.92,4.38v-28.05Zm-8.9,35.05a14.39,14.39,0,0,0-5.4-4.68,15.47,15.47,0,0,0-6.5-1.32q-7,0-10.85,5t-3.8,14.4a36.58,36.58,0,0,0,.85,8.48,16.3,16.3,0,0,0,2.5,5.8,9.82,9.82,0,0,0,4,3.33,13.47,13.47,0,0,0,5.45,1,14.43,14.43,0,0,0,7.67-2,22,22,0,0,0,6-5.65Z"/><path class="cls-7" d="M653.95,1423.28a16.9,16.9,0,0,1-3.95,3.47,24.57,24.57,0,0,1-4.93,2.42,31.23,31.23,0,0,1-5.42,1.42,33.17,33.17,0,0,1-5.55.48,25.77,25.77,0,0,1-9.67-1.78,21.21,21.21,0,0,1-7.65-5.2,23.84,23.84,0,0,1-5-8.47,34.45,34.45,0,0,1-1.8-11.6,29.51,29.51,0,0,1,1.63-9.9,23.32,23.32,0,0,1,4.68-8,21.53,21.53,0,0,1,7.45-5.3,24.47,24.47,0,0,1,9.9-1.92,22.81,22.81,0,0,1,8.43,1.53,19.07,19.07,0,0,1,6.7,4.4,20.19,20.19,0,0,1,4.43,7.1,27,27,0,0,1,1.6,9.63,5.81,5.81,0,0,1-.45,2.8,1.87,1.87,0,0,1-1.7.7H618.75a29.58,29.58,0,0,0,1.32,8.35,16.75,16.75,0,0,0,3.27,5.92,13.22,13.22,0,0,0,5,3.55,17.17,17.17,0,0,0,6.5,1.17,19,19,0,0,0,5.78-.78,27.54,27.54,0,0,0,4.17-1.67,31.77,31.77,0,0,0,2.92-1.67,3.88,3.88,0,0,1,2-.78,2,2,0,0,1,1.7.85Zm-7.2-23.75a17.58,17.58,0,0,0-.87-5.68,12.76,12.76,0,0,0-2.55-4.45,11.39,11.39,0,0,0-4.07-2.9,13.77,13.77,0,0,0-5.45-1q-6.4,0-10.12,3.73T619,1399.53Z"/><path class="cls-7" d="M706.6,1430.38h-8.55a2.45,2.45,0,0,1-1.73-.58,5.27,5.27,0,0,1-1-1.27l-12.75-19.85c-.13.47-.27.92-.43,1.38a4.48,4.48,0,0,1-.62,1.23l-11.8,17.25a10.1,10.1,0,0,1-1.08,1.27,2.13,2.13,0,0,1-1.57.58h-8l17.75-26-17-24.65h8.55a2.85,2.85,0,0,1,1.6.35,3.33,3.33,0,0,1,.9,1l12.45,19a10.41,10.41,0,0,1,1.25-2.8l10.9-16a4.69,4.69,0,0,1,1-1.12,2,2,0,0,1,1.27-.43h8.2l-17.05,24.2Z"/><path class="cls-7" d="M713.3,1424.88a6.36,6.36,0,0,1,.48-2.45,6.28,6.28,0,0,1,1.3-2,6.23,6.23,0,0,1,6.88-1.35,6.33,6.33,0,0,1,3.35,3.35,6.09,6.09,0,0,1,.5,2.45,6,6,0,0,1-.5,2.47,6.5,6.5,0,0,1-1.35,2,6.07,6.07,0,0,1-2,1.33,6.56,6.56,0,0,1-4.9,0,5.78,5.78,0,0,1-2-1.33,6.26,6.26,0,0,1-1.78-4.45Z"/><path class="cls-7" d="M747.35,1386.48a26.87,26.87,0,0,1,7.2-5.5,19.48,19.48,0,0,1,9.1-2,18.3,18.3,0,0,1,7.32,1.38,14.19,14.19,0,0,1,5.3,3.9,17.25,17.25,0,0,1,3.22,6.08,26.47,26.47,0,0,1,1.1,7.85v32.25h-8.95v-32.25q0-5.75-2.62-8.92t-8-3.17a15,15,0,0,0-7.37,1.9,24.28,24.28,0,0,0-6.33,5.15v37.3H738.4v-73.65h8.95Z"/><path class="cls-7" d="M809,1431.18q-6,0-9.22-3.35t-3.22-9.65v-31h-6.1a2,2,0,0,1-1.35-.47,1.84,1.84,0,0,1-.55-1.48v-3.55l8.3-1,2-15.65a2.18,2.18,0,0,1,.67-1.22,2,2,0,0,1,1.38-.47h4.5v17.45h14.65v6.45H805.5v30.4a6.47,6.47,0,0,0,1.55,4.75,5.41,5.41,0,0,0,4,1.55,7.07,7.07,0,0,0,2.43-.37,10.44,10.44,0,0,0,1.77-.83q.75-.45,1.28-.83a1.66,1.66,0,0,1,.92-.37,1.53,1.53,0,0,1,1.25.85l2.6,4.25a16.57,16.57,0,0,1-5.55,3.38A18.85,18.85,0,0,1,809,1431.18Z"/><path class="cls-7" d="M829.35,1430.38v-50.65h5.35a2.2,2.2,0,0,1,2.35,1.85l.65,5.2a25.75,25.75,0,0,1,6.3-5.65,14.89,14.89,0,0,1,8.1-2.2,11.92,11.92,0,0,1,8.28,2.85,16,16,0,0,1,4.58,7.7,16.71,16.71,0,0,1,2.82-4.75,16.16,16.16,0,0,1,3.88-3.3,16.4,16.4,0,0,1,4.58-1.9,20.41,20.41,0,0,1,4.92-.6,18.72,18.72,0,0,1,7.13,1.28,14.11,14.11,0,0,1,5.3,3.72,16.61,16.61,0,0,1,3.32,6,26.68,26.68,0,0,1,1.15,8.17v32.25h-9v-32.25q0-6-2.6-9T879,1386a11.32,11.32,0,0,0-4.17.77,10.07,10.07,0,0,0-3.48,2.28,10.67,10.67,0,0,0-2.37,3.77,14.65,14.65,0,0,0-.87,5.28v32.25h-9v-32.25q0-6.1-2.45-9.1t-7.15-3a11.18,11.18,0,0,0-6.1,1.77,20.23,20.23,0,0,0-5.15,4.83v37.75Z"/><path class="cls-7" d="M920.8,1356.73v73.65h-8.9v-73.65Z"/><rect class="cls-6" x="759" y="82.53" width="287.92" height="287.92"/><path class="cls-7" d="M1172.47,217.94a2,2,0,0,1-1.85,1.1,3.47,3.47,0,0,1-1.7-.55q-1-.55-2.33-1.22a21.78,21.78,0,0,0-3.28-1.25,15.64,15.64,0,0,0-4.5-.58,13.3,13.3,0,0,0-4,.58,9.73,9.73,0,0,0-3.08,1.57,7,7,0,0,0-1.95,2.33,6.24,6.24,0,0,0-.68,2.88,4.79,4.79,0,0,0,1.13,3.25,9.76,9.76,0,0,0,3,2.25,25.76,25.76,0,0,0,4.2,1.67q2.35.73,4.82,1.55t4.83,1.82a17.56,17.56,0,0,1,4.2,2.5,11.45,11.45,0,0,1,3,3.68,11.24,11.24,0,0,1,1.13,5.22,16.54,16.54,0,0,1-1.25,6.47,14.12,14.12,0,0,1-3.7,5.15,17.84,17.84,0,0,1-6,3.42,24.66,24.66,0,0,1-8.2,1.25,25.59,25.59,0,0,1-9.6-1.72,24.33,24.33,0,0,1-7.3-4.42l2.1-3.4a3,3,0,0,1,.95-1,2.57,2.57,0,0,1,1.4-.35,3.36,3.36,0,0,1,1.9.7q1,.7,2.42,1.55a18.46,18.46,0,0,0,3.47,1.55,16,16,0,0,0,5.1.7,13.91,13.91,0,0,0,4.55-.68,9.55,9.55,0,0,0,3.25-1.82,7.24,7.24,0,0,0,1.92-2.65,8.25,8.25,0,0,0,.63-3.2,5.31,5.31,0,0,0-1.12-3.47,9.51,9.51,0,0,0-3-2.35,24.35,24.35,0,0,0-4.23-1.7q-2.37-.73-4.85-1.53t-4.85-1.83a17,17,0,0,1-4.22-2.58,11.65,11.65,0,0,1-3-3.82,12.37,12.37,0,0,1-1.12-5.53,13.48,13.48,0,0,1,1.2-5.58,13.7,13.7,0,0,1,3.5-4.7A17.24,17.24,0,0,1,1151,210a22.61,22.61,0,0,1,7.65-1.2,24.2,24.2,0,0,1,9,1.58,21.24,21.24,0,0,1,6.88,4.33Z"/><path class="cls-7" d="M1201.82,261q-6,0-9.22-3.35t-3.23-9.65V217h-6.1a2,2,0,0,1-1.35-.47,1.84,1.84,0,0,1-.55-1.48v-3.55l8.3-1,2-15.65a2.18,2.18,0,0,1,.67-1.22,2,2,0,0,1,1.38-.47h4.5v17.45h14.65V217h-14.65v30.4a6.47,6.47,0,0,0,1.55,4.75,5.41,5.41,0,0,0,4,1.55,7.06,7.06,0,0,0,2.42-.37,10.42,10.42,0,0,0,1.78-.83q.75-.45,1.28-.83a1.66,1.66,0,0,1,.92-.37,1.54,1.54,0,0,1,1.25.85l2.6,4.25a16.58,16.58,0,0,1-5.55,3.38A18.85,18.85,0,0,1,1201.82,261Z"/><path class="cls-7" d="M1265.82,209.58l-28.25,65.6a4.65,4.65,0,0,1-1.12,1.6,3.05,3.05,0,0,1-2.08.6h-6.6l9.25-20.1-20.9-47.7h7.7a2.73,2.73,0,0,1,1.83.58,3,3,0,0,1,.92,1.28l13.55,31.9a35.76,35.76,0,0,1,1.35,4.4q.7-2.35,1.5-4.45l13.15-31.85a2.85,2.85,0,0,1,1-1.33,2.71,2.71,0,0,1,1.63-.53Z"/><path class="cls-7" d="M1282.86,186.58v73.65H1274V186.58Z"/><path class="cls-7" d="M1338.36,253.14a16.9,16.9,0,0,1-3.95,3.47,24.59,24.59,0,0,1-4.93,2.42,31.23,31.23,0,0,1-5.42,1.42,33.17,33.17,0,0,1-5.55.48,25.77,25.77,0,0,1-9.67-1.78,21.22,21.22,0,0,1-7.65-5.2,23.84,23.84,0,0,1-5-8.47,34.45,34.45,0,0,1-1.8-11.6A29.53,29.53,0,0,1,1296,224a23.32,23.32,0,0,1,4.68-8,21.52,21.52,0,0,1,7.45-5.3,24.48,24.48,0,0,1,9.9-1.92,22.8,22.8,0,0,1,8.42,1.53,19.07,19.07,0,0,1,6.7,4.4,20.19,20.19,0,0,1,4.42,7.1,27,27,0,0,1,1.6,9.63,5.81,5.81,0,0,1-.45,2.8,1.87,1.87,0,0,1-1.7.7h-33.85a29.6,29.6,0,0,0,1.32,8.35,16.75,16.75,0,0,0,3.28,5.92,13.22,13.22,0,0,0,5,3.55,17.17,17.17,0,0,0,6.5,1.17,19,19,0,0,0,5.78-.78,27.54,27.54,0,0,0,4.17-1.67,31.84,31.84,0,0,0,2.92-1.67,3.88,3.88,0,0,1,2-.78,2,2,0,0,1,1.7.85Zm-7.2-23.75a17.59,17.59,0,0,0-.87-5.68,12.75,12.75,0,0,0-2.55-4.45,11.39,11.39,0,0,0-4.07-2.9,13.78,13.78,0,0,0-5.45-1q-6.4,0-10.12,3.73t-4.62,10.33Z"/><path class="cls-7" d="M1348.56,254.74a6.36,6.36,0,0,1,.47-2.45,6.28,6.28,0,0,1,1.3-2,6.23,6.23,0,0,1,6.88-1.35,6.33,6.33,0,0,1,3.35,3.35,6.09,6.09,0,0,1,.5,2.45,6,6,0,0,1-.5,2.47,6.51,6.51,0,0,1-1.35,2,6.08,6.08,0,0,1-2,1.33,6.56,6.56,0,0,1-4.9,0,5.78,5.78,0,0,1-2-1.33,6.26,6.26,0,0,1-1.78-4.45Z"/><path class="cls-7" d="M1408.91,218.58a4,4,0,0,1-.8.85,1.8,1.8,0,0,1-1.1.3,3,3,0,0,1-1.65-.62q-.9-.62-2.22-1.37a17.87,17.87,0,0,0-3.25-1.37,17.53,17.53,0,0,0-11.33.7,12.7,12.7,0,0,0-4.78,3.83,17.31,17.31,0,0,0-2.9,6,30,30,0,0,0-1,8,29,29,0,0,0,1.05,8.17,17.42,17.42,0,0,0,3,6,12.8,12.8,0,0,0,4.65,3.7,14.28,14.28,0,0,0,6.13,1.27,14.7,14.7,0,0,0,8.82-2.5q1.38-.95,2.3-1.72a2.87,2.87,0,0,1,1.83-.78,2,2,0,0,1,1.7.85l2.5,3.25a17.71,17.71,0,0,1-3.75,3.5,23.13,23.13,0,0,1-4.52,2.42,24.64,24.64,0,0,1-5.08,1.42,32.24,32.24,0,0,1-5.4.45,22.14,22.14,0,0,1-8.83-1.75,20.12,20.12,0,0,1-7.07-5.08,23.76,23.76,0,0,1-4.7-8.17,36.11,36.11,0,0,1-.12-21.5,23.68,23.68,0,0,1,4.6-8.28,20.9,20.9,0,0,1,7.45-5.42,25,25,0,0,1,10.17-2,24,24,0,0,1,9.43,1.73,22.55,22.55,0,0,1,7.22,4.88Z"/><path class="cls-7" d="M1450.91,217.94a2,2,0,0,1-1.85,1.1,3.47,3.47,0,0,1-1.7-.55q-1-.55-2.33-1.22a21.81,21.81,0,0,0-3.27-1.25,15.65,15.65,0,0,0-4.5-.58,13.3,13.3,0,0,0-4.05.58,9.73,9.73,0,0,0-3.07,1.57,7,7,0,0,0-2,2.33,6.24,6.24,0,0,0-.67,2.88,4.79,4.79,0,0,0,1.13,3.25,9.76,9.76,0,0,0,3,2.25,25.76,25.76,0,0,0,4.2,1.67q2.35.73,4.83,1.55t4.82,1.82a17.56,17.56,0,0,1,4.2,2.5,11.44,11.44,0,0,1,3,3.68,11.24,11.24,0,0,1,1.13,5.22,16.56,16.56,0,0,1-1.25,6.47,14.14,14.14,0,0,1-3.7,5.15,17.84,17.84,0,0,1-6,3.42,24.66,24.66,0,0,1-8.2,1.25,25.59,25.59,0,0,1-9.6-1.72,24.33,24.33,0,0,1-7.3-4.42l2.1-3.4a3.05,3.05,0,0,1,1-1,2.57,2.57,0,0,1,1.4-.35,3.36,3.36,0,0,1,1.9.7q1,.7,2.42,1.55a18.46,18.46,0,0,0,3.47,1.55,16,16,0,0,0,5.1.7,13.91,13.91,0,0,0,4.55-.68,9.55,9.55,0,0,0,3.25-1.82,7.24,7.24,0,0,0,1.92-2.65,8.23,8.23,0,0,0,.63-3.2,5.31,5.31,0,0,0-1.12-3.47,9.51,9.51,0,0,0-3-2.35,24.31,24.31,0,0,0-4.23-1.7q-2.37-.73-4.85-1.53t-4.85-1.83a17,17,0,0,1-4.23-2.58,11.65,11.65,0,0,1-3-3.82,12.37,12.37,0,0,1-1.12-5.53,13.47,13.47,0,0,1,1.2-5.58,13.68,13.68,0,0,1,3.5-4.7,17.22,17.22,0,0,1,5.65-3.22,22.62,22.62,0,0,1,7.65-1.2,24.2,24.2,0,0,1,9,1.58,21.24,21.24,0,0,1,6.88,4.33Z"/><path class="cls-7" d="M1494.21,217.94a2,2,0,0,1-1.85,1.1,3.47,3.47,0,0,1-1.7-.55q-1-.55-2.33-1.22a21.81,21.81,0,0,0-3.27-1.25,15.65,15.65,0,0,0-4.5-.58,13.3,13.3,0,0,0-4.05.58,9.73,9.73,0,0,0-3.07,1.57,7,7,0,0,0-2,2.33,6.24,6.24,0,0,0-.67,2.88,4.79,4.79,0,0,0,1.13,3.25,9.76,9.76,0,0,0,3,2.25,25.76,25.76,0,0,0,4.2,1.67q2.35.73,4.83,1.55t4.82,1.82a17.56,17.56,0,0,1,4.2,2.5,11.44,11.44,0,0,1,3,3.68,11.24,11.24,0,0,1,1.13,5.22,16.56,16.56,0,0,1-1.25,6.47,14.14,14.14,0,0,1-3.7,5.15,17.84,17.84,0,0,1-6,3.42,24.66,24.66,0,0,1-8.2,1.25,25.59,25.59,0,0,1-9.6-1.72,24.33,24.33,0,0,1-7.3-4.42l2.1-3.4a3.05,3.05,0,0,1,1-1,2.57,2.57,0,0,1,1.4-.35,3.36,3.36,0,0,1,1.9.7q1,.7,2.42,1.55a18.46,18.46,0,0,0,3.47,1.55,16,16,0,0,0,5.1.7,13.91,13.91,0,0,0,4.55-.68,9.55,9.55,0,0,0,3.25-1.82,7.24,7.24,0,0,0,1.92-2.65,8.23,8.23,0,0,0,.63-3.2,5.31,5.31,0,0,0-1.12-3.47,9.51,9.51,0,0,0-3-2.35,24.31,24.31,0,0,0-4.23-1.7q-2.37-.73-4.85-1.53t-4.85-1.83a17,17,0,0,1-4.23-2.58,11.65,11.65,0,0,1-3-3.82,12.37,12.37,0,0,1-1.12-5.53,13.47,13.47,0,0,1,1.2-5.58,13.68,13.68,0,0,1,3.5-4.7,17.22,17.22,0,0,1,5.65-3.22,22.62,22.62,0,0,1,7.65-1.2,24.2,24.2,0,0,1,9,1.58,21.24,21.24,0,0,1,6.88,4.33Z"/><rect class="cls-6" x="759" y="859.42" width="287.92" height="287.92"/><path class="cls-7" d="M1158.52,1037.93q-6,0-9.22-3.35t-3.23-9.65v-31H1140a2,2,0,0,1-1.35-.47,1.84,1.84,0,0,1-.55-1.48v-3.55l8.3-1,2-15.65a2.18,2.18,0,0,1,.67-1.22,2,2,0,0,1,1.38-.47h4.5v17.45h14.65v6.45H1155v30.4a6.47,6.47,0,0,0,1.55,4.75,5.41,5.41,0,0,0,4,1.55,7.06,7.06,0,0,0,2.42-.37,10.42,10.42,0,0,0,1.78-.83q.75-.45,1.28-.83a1.66,1.66,0,0,1,.92-.37,1.54,1.54,0,0,1,1.25.85l2.6,4.25a16.58,16.58,0,0,1-5.55,3.38A18.85,18.85,0,0,1,1158.52,1037.93Z"/><path class="cls-7" d="M1187.27,996.63a22.84,22.84,0,0,1,5.9-8.12,12.88,12.88,0,0,1,8.55-2.92,13.33,13.33,0,0,1,3.08.35,8.27,8.27,0,0,1,2.63,1.1l-.65,6.65a1.43,1.43,0,0,1-1.5,1.25,10.31,10.31,0,0,1-2-.3,14.11,14.11,0,0,0-3-.3,12.16,12.16,0,0,0-4.28.7,10,10,0,0,0-3.35,2.07,14.7,14.7,0,0,0-2.65,3.4,29.13,29.13,0,0,0-2.12,4.63v32h-9V986.48h5.1a2.81,2.81,0,0,1,2,.55,3.38,3.38,0,0,1,.75,1.9Z"/><path class="cls-7" d="M1254.27,1030a16.91,16.91,0,0,1-4,3.47,24.56,24.56,0,0,1-4.92,2.42,31.23,31.23,0,0,1-5.42,1.42,33.18,33.18,0,0,1-5.55.48,25.77,25.77,0,0,1-9.67-1.78,21.21,21.21,0,0,1-7.65-5.2,23.84,23.84,0,0,1-5-8.47,34.45,34.45,0,0,1-1.8-11.6,29.5,29.5,0,0,1,1.63-9.9,23.33,23.33,0,0,1,4.67-8,21.53,21.53,0,0,1,7.45-5.3,24.47,24.47,0,0,1,9.9-1.92,22.81,22.81,0,0,1,8.43,1.53,19.07,19.07,0,0,1,6.7,4.4,20.19,20.19,0,0,1,4.43,7.1,27,27,0,0,1,1.6,9.63,5.81,5.81,0,0,1-.45,2.8,1.87,1.87,0,0,1-1.7.7h-33.85a29.56,29.56,0,0,0,1.33,8.35,16.75,16.75,0,0,0,3.27,5.92,13.22,13.22,0,0,0,5,3.55,17.18,17.18,0,0,0,6.5,1.17,19,19,0,0,0,5.78-.78,27.54,27.54,0,0,0,4.17-1.67,31.71,31.71,0,0,0,2.92-1.67,3.88,3.88,0,0,1,2-.78,2,2,0,0,1,1.7.85Zm-7.2-23.75a17.57,17.57,0,0,0-.87-5.68,12.77,12.77,0,0,0-2.55-4.45,11.39,11.39,0,0,0-4.08-2.9,13.77,13.77,0,0,0-5.45-1q-6.4,0-10.12,3.73t-4.62,10.33Z"/><path class="cls-7" d="M1307.07,1030a16.91,16.91,0,0,1-4,3.47,24.56,24.56,0,0,1-4.92,2.42,31.23,31.23,0,0,1-5.42,1.42,33.18,33.18,0,0,1-5.55.48,25.77,25.77,0,0,1-9.67-1.78,21.21,21.21,0,0,1-7.65-5.2,23.84,23.84,0,0,1-5-8.47,34.45,34.45,0,0,1-1.8-11.6,29.5,29.5,0,0,1,1.63-9.9,23.33,23.33,0,0,1,4.67-8,21.53,21.53,0,0,1,7.45-5.3,24.47,24.47,0,0,1,9.9-1.92,22.81,22.81,0,0,1,8.43,1.53,19.07,19.07,0,0,1,6.7,4.4,20.19,20.19,0,0,1,4.43,7.1,27,27,0,0,1,1.6,9.63,5.81,5.81,0,0,1-.45,2.8,1.87,1.87,0,0,1-1.7.7h-33.85a29.56,29.56,0,0,0,1.33,8.35,16.75,16.75,0,0,0,3.27,5.92,13.22,13.22,0,0,0,5,3.55,17.18,17.18,0,0,0,6.5,1.17,19,19,0,0,0,5.78-.78,27.54,27.54,0,0,0,4.17-1.67,31.71,31.71,0,0,0,2.92-1.67,3.88,3.88,0,0,1,2-.78,2,2,0,0,1,1.7.85Zm-7.2-23.75a17.57,17.57,0,0,0-.87-5.68,12.77,12.77,0,0,0-2.55-4.45,11.39,11.39,0,0,0-4.08-2.9,13.77,13.77,0,0,0-5.45-1q-6.4,0-10.12,3.73t-4.62,10.33Z"/><path class="cls-7" d="M1348.27,994.83a2,2,0,0,1-1.85,1.1,3.47,3.47,0,0,1-1.7-.55q-1-.55-2.33-1.22a21.77,21.77,0,0,0-3.27-1.25,15.65,15.65,0,0,0-4.5-.58,13.29,13.29,0,0,0-4,.58,9.72,9.72,0,0,0-3.08,1.57,7,7,0,0,0-2,2.33,6.24,6.24,0,0,0-.67,2.88,4.79,4.79,0,0,0,1.13,3.25,9.76,9.76,0,0,0,3,2.25,25.79,25.79,0,0,0,4.2,1.67q2.35.73,4.83,1.55t4.83,1.82a17.55,17.55,0,0,1,4.2,2.5,11.44,11.44,0,0,1,3,3.68,11.24,11.24,0,0,1,1.13,5.22,16.54,16.54,0,0,1-1.25,6.47,14.14,14.14,0,0,1-3.7,5.15,17.84,17.84,0,0,1-6,3.42,24.66,24.66,0,0,1-8.2,1.25,25.59,25.59,0,0,1-9.6-1.72,24.33,24.33,0,0,1-7.3-4.42l2.1-3.4a3.05,3.05,0,0,1,1-1,2.57,2.57,0,0,1,1.4-.35,3.36,3.36,0,0,1,1.9.7q1,.7,2.42,1.55a18.48,18.48,0,0,0,3.48,1.55,16,16,0,0,0,5.1.7,13.91,13.91,0,0,0,4.55-.68,9.55,9.55,0,0,0,3.25-1.82,7.24,7.24,0,0,0,1.92-2.65,8.23,8.23,0,0,0,.63-3.2,5.31,5.31,0,0,0-1.12-3.47,9.51,9.51,0,0,0-3-2.35,24.33,24.33,0,0,0-4.22-1.7q-2.38-.73-4.85-1.53t-4.85-1.83a17,17,0,0,1-4.23-2.58,11.65,11.65,0,0,1-3-3.82,12.37,12.37,0,0,1-1.12-5.53,13.48,13.48,0,0,1,1.2-5.58,13.68,13.68,0,0,1,3.5-4.7,17.22,17.22,0,0,1,5.65-3.22,22.62,22.62,0,0,1,7.65-1.2,24.2,24.2,0,0,1,9,1.58,21.24,21.24,0,0,1,6.88,4.33Z"/><path class="cls-7" d="M1360.57,1031.63a6.39,6.39,0,0,1,1.78-4.45,6.23,6.23,0,0,1,6.88-1.35,6.33,6.33,0,0,1,3.35,3.35,6.09,6.09,0,0,1,.5,2.45,6,6,0,0,1-.5,2.47,6.5,6.5,0,0,1-1.35,2,6.07,6.07,0,0,1-2,1.33,6.56,6.56,0,0,1-4.9,0,5.79,5.79,0,0,1-2-1.33,6.36,6.36,0,0,1-1.3-2A6.28,6.28,0,0,1,1360.57,1031.63Z"/><path class="cls-7" d="M1394.17,994.33a26.24,26.24,0,0,1,7.4-6.35,19,19,0,0,1,9.6-2.4,18.41,18.41,0,0,1,8,1.67,16.31,16.31,0,0,1,6,5,23.74,23.74,0,0,1,3.85,8.13,41.73,41.73,0,0,1,1.35,11.15,35,35,0,0,1-1.5,10.43,25.12,25.12,0,0,1-4.33,8.35,20,20,0,0,1-16.08,7.58,18.49,18.49,0,0,1-8-1.58,18.72,18.72,0,0,1-5.87-4.37v22.4h-9v-67.8H1391a2.2,2.2,0,0,1,2.35,1.85Zm.45,30.6a14.37,14.37,0,0,0,5.35,4.65,15.23,15.23,0,0,0,6.5,1.35q7.1,0,10.9-5t3.8-14.4a36,36,0,0,0-.87-8.5,16.62,16.62,0,0,0-2.52-5.82,9.83,9.83,0,0,0-4.05-3.33,13.47,13.47,0,0,0-5.45-1,14.34,14.34,0,0,0-7.63,2,22,22,0,0,0-6,5.65Z"/><path class="cls-7" d="M1450.11,993.83a30,30,0,0,1,3.5-3.35,23,23,0,0,1,3.92-2.57,19.93,19.93,0,0,1,4.4-1.65,20.91,20.91,0,0,1,5-.58,18.3,18.3,0,0,1,7.33,1.38,14.19,14.19,0,0,1,5.3,3.9,17.23,17.23,0,0,1,3.23,6.08,26.47,26.47,0,0,1,1.1,7.85v32.25h-9v-32.25q0-5.75-2.62-8.92t-8-3.17a15,15,0,0,0-7.37,1.9,24.28,24.28,0,0,0-6.33,5.15v37.3h-9V986.48h5.35a2.2,2.2,0,0,1,2.35,1.85Z"/><path class="cls-7" d="M1540.26,988.48v3.3q0,1.65-2.1,2.1l-5.75.75a16.55,16.55,0,0,1,.27,14,15.38,15.38,0,0,1-3.92,5.17,17.42,17.42,0,0,1-6,3.3,24.19,24.19,0,0,1-7.6,1.15,25.59,25.59,0,0,1-6.7-.85,9,9,0,0,0-2.45,2.13,3.75,3.75,0,0,0-.85,2.28,3,3,0,0,0,1.47,2.72,10.55,10.55,0,0,0,3.88,1.33,41.67,41.67,0,0,0,5.48.5q3.07.1,6.3.33a59.11,59.11,0,0,1,6.3.77,19.07,19.07,0,0,1,5.47,1.8,10.32,10.32,0,0,1,3.88,3.45,10.05,10.05,0,0,1,1.48,5.7,13.24,13.24,0,0,1-1.62,6.3,17.08,17.08,0,0,1-4.67,5.43,24.09,24.09,0,0,1-7.48,3.8,32.46,32.46,0,0,1-10,1.42,38.14,38.14,0,0,1-9.7-1.1,22.8,22.8,0,0,1-6.9-3,12.87,12.87,0,0,1-4.12-4.28,10.14,10.14,0,0,1-1.37-5.08,9.12,9.12,0,0,1,2.35-6.35,16.26,16.26,0,0,1,6.45-4.15,9.22,9.22,0,0,1-3.58-2.67,7.09,7.09,0,0,1-1.33-4.52,7,7,0,0,1,.4-2.28,9.32,9.32,0,0,1,1.22-2.35,12.54,12.54,0,0,1,2-2.23,13.13,13.13,0,0,1,2.8-1.85,15.57,15.57,0,0,1-5.85-5.58,15.31,15.31,0,0,1-2.1-8.08,15.58,15.58,0,0,1,1.42-6.72,14.88,14.88,0,0,1,4-5.15,18.18,18.18,0,0,1,6.07-3.27,26.49,26.49,0,0,1,13.88-.43,19.54,19.54,0,0,1,5.2,2.13Zm-9,51.4a4.27,4.27,0,0,0-1-3,7,7,0,0,0-2.83-1.8,18.23,18.23,0,0,0-4.12-.92q-2.35-.28-5-.43l-5.33-.3q-2.7-.15-5.2-.5a13.94,13.94,0,0,0-4.58,3.28,6.7,6.7,0,0,0-1.77,4.63,6.11,6.11,0,0,0,.88,3.17,7.45,7.45,0,0,0,2.67,2.55,15.67,15.67,0,0,0,4.52,1.7,32.81,32.81,0,0,0,12.88,0,16.21,16.21,0,0,0,4.83-1.85,9.09,9.09,0,0,0,3-2.85A6.66,6.66,0,0,0,1531.21,1039.88Zm-16-27.5a13.8,13.8,0,0,0,4.75-.75,9.7,9.7,0,0,0,3.45-2.1,8.61,8.61,0,0,0,2.1-3.23,11.71,11.71,0,0,0,.7-4.12,9.85,9.85,0,0,0-2.83-7.4q-2.83-2.75-8.17-2.75t-8.23,2.75a9.85,9.85,0,0,0-2.82,7.4,11.35,11.35,0,0,0,.72,4.13,8.85,8.85,0,0,0,2.13,3.23,9.69,9.69,0,0,0,3.45,2.1A13.79,13.79,0,0,0,1515.16,1012.38Z"/><rect class="cls-6" x="1713.92" y="859.42" width="287.92" height="287.92"/><path class="cls-7" d="M2107.08,963.48v73.65h-8.9V963.48Z"/><path class="cls-7" d="M2142.83,985.68a25.83,25.83,0,0,1,10,1.85,21.44,21.44,0,0,1,7.6,5.25,23.05,23.05,0,0,1,4.83,8.22,35.58,35.58,0,0,1,0,21.58,23.09,23.09,0,0,1-4.83,8.2,21.17,21.17,0,0,1-7.6,5.22,26.14,26.14,0,0,1-10,1.83,26.46,26.46,0,0,1-10.07-1.83,21.1,21.1,0,0,1-7.62-5.22,23.06,23.06,0,0,1-4.83-8.2,35.58,35.58,0,0,1,0-21.58,23,23,0,0,1,4.83-8.22,21.37,21.37,0,0,1,7.63-5.25A26.14,26.14,0,0,1,2142.83,985.68Zm0,45.2q7.5,0,11.2-5t3.7-14q0-9-3.7-14.1t-11.2-5a15.72,15.72,0,0,0-6.62,1.3,12.32,12.32,0,0,0-4.7,3.75,16.68,16.68,0,0,0-2.8,6,32.28,32.28,0,0,0-.92,8.08q0,9,3.73,14T2142.83,1030.88Z"/><path class="cls-7" d="M2220.68,988.48v3.3q0,1.65-2.1,2.1l-5.75.75a16.56,16.56,0,0,1,.27,14,15.4,15.4,0,0,1-3.92,5.17,17.42,17.42,0,0,1-6,3.3,24.19,24.19,0,0,1-7.6,1.15,25.59,25.59,0,0,1-6.7-.85,9,9,0,0,0-2.45,2.13,3.75,3.75,0,0,0-.85,2.28,3,3,0,0,0,1.47,2.72,10.54,10.54,0,0,0,3.88,1.33,41.65,41.65,0,0,0,5.47.5q3.08.1,6.3.33a59.11,59.11,0,0,1,6.3.77,19.07,19.07,0,0,1,5.47,1.8,10.32,10.32,0,0,1,3.88,3.45,10.05,10.05,0,0,1,1.48,5.7,13.25,13.25,0,0,1-1.62,6.3,17.07,17.07,0,0,1-4.68,5.43,24.07,24.07,0,0,1-7.47,3.8,32.47,32.47,0,0,1-10,1.42,38.14,38.14,0,0,1-9.7-1.1,22.8,22.8,0,0,1-6.9-3,12.87,12.87,0,0,1-4.12-4.28A10.14,10.14,0,0,1,2174,1042a9.12,9.12,0,0,1,2.35-6.35,16.26,16.26,0,0,1,6.45-4.15,9.21,9.21,0,0,1-3.57-2.67,7.75,7.75,0,0,1-.93-6.8,9.36,9.36,0,0,1,1.23-2.35,12.57,12.57,0,0,1,2-2.23,13.16,13.16,0,0,1,2.8-1.85,15.57,15.57,0,0,1-5.85-5.58,15.31,15.31,0,0,1-2.1-8.08,15.58,15.58,0,0,1,1.42-6.72,14.89,14.89,0,0,1,4-5.15,18.2,18.2,0,0,1,6.08-3.27,26.49,26.49,0,0,1,13.88-.43,19.54,19.54,0,0,1,5.2,2.13Zm-9,51.4a4.28,4.28,0,0,0-1-3,7,7,0,0,0-2.83-1.8,18.23,18.23,0,0,0-4.12-.92q-2.35-.28-5-.43l-5.32-.3q-2.7-.15-5.2-.5a13.94,13.94,0,0,0-4.58,3.28,6.7,6.7,0,0,0-1.78,4.63,6.12,6.12,0,0,0,.88,3.17,7.46,7.46,0,0,0,2.68,2.55,15.64,15.64,0,0,0,4.52,1.7,32.81,32.81,0,0,0,12.88,0,16.21,16.21,0,0,0,4.83-1.85,9.09,9.09,0,0,0,3-2.85A6.67,6.67,0,0,0,2211.63,1039.88Zm-16-27.5a13.8,13.8,0,0,0,4.75-.75,9.7,9.7,0,0,0,3.45-2.1,8.61,8.61,0,0,0,2.1-3.23,11.73,11.73,0,0,0,.7-4.12,9.85,9.85,0,0,0-2.83-7.4q-2.83-2.75-8.17-2.75t-8.23,2.75a9.85,9.85,0,0,0-2.83,7.4,11.35,11.35,0,0,0,.73,4.13,8.85,8.85,0,0,0,2.13,3.23,9.69,9.69,0,0,0,3.45,2.1A13.79,13.79,0,0,0,2195.58,1012.38Z"/><path class="cls-7" d="M2250.48,985.68a25.83,25.83,0,0,1,10,1.85,21.44,21.44,0,0,1,7.6,5.25,23.05,23.05,0,0,1,4.83,8.22,35.58,35.58,0,0,1,0,21.58,23.09,23.09,0,0,1-4.83,8.2,21.17,21.17,0,0,1-7.6,5.22,26.14,26.14,0,0,1-10,1.83,26.46,26.46,0,0,1-10.07-1.83,21.1,21.1,0,0,1-7.62-5.22,23.06,23.06,0,0,1-4.83-8.2,35.58,35.58,0,0,1,0-21.58,23,23,0,0,1,4.83-8.22,21.37,21.37,0,0,1,7.63-5.25A26.14,26.14,0,0,1,2250.48,985.68Zm0,45.2q7.5,0,11.2-5t3.7-14q0-9-3.7-14.1t-11.2-5a15.72,15.72,0,0,0-6.62,1.3,12.32,12.32,0,0,0-4.7,3.75,16.68,16.68,0,0,0-2.8,6,32.28,32.28,0,0,0-.92,8.08q0,9,3.73,14T2250.48,1030.88Z"/><path class="cls-7" d="M2284.33,1031.63a6.39,6.39,0,0,1,1.78-4.45,6.23,6.23,0,0,1,6.88-1.35,6.33,6.33,0,0,1,3.35,3.35,6.09,6.09,0,0,1,.5,2.45,6,6,0,0,1-.5,2.47,6.5,6.5,0,0,1-1.35,2,6.07,6.07,0,0,1-2,1.33,6.56,6.56,0,0,1-4.9,0,5.79,5.79,0,0,1-2-1.33,6.36,6.36,0,0,1-1.3-2A6.28,6.28,0,0,1,2284.33,1031.63Z"/><path class="cls-7" d="M2338.93,994.83a2,2,0,0,1-1.85,1.1,3.47,3.47,0,0,1-1.7-.55q-1-.55-2.33-1.22a21.78,21.78,0,0,0-3.28-1.25,15.64,15.64,0,0,0-4.5-.58,13.3,13.3,0,0,0-4,.58,9.73,9.73,0,0,0-3.08,1.57,7,7,0,0,0-1.95,2.33,6.24,6.24,0,0,0-.68,2.88,4.79,4.79,0,0,0,1.13,3.25,9.76,9.76,0,0,0,3,2.25,25.76,25.76,0,0,0,4.2,1.67q2.35.73,4.82,1.55t4.83,1.82a17.56,17.56,0,0,1,4.2,2.5,11.45,11.45,0,0,1,3,3.68,11.24,11.24,0,0,1,1.13,5.22,16.54,16.54,0,0,1-1.25,6.47,14.12,14.12,0,0,1-3.7,5.15,17.84,17.84,0,0,1-6,3.42,24.66,24.66,0,0,1-8.2,1.25,25.59,25.59,0,0,1-9.6-1.72,24.33,24.33,0,0,1-7.3-4.42l2.1-3.4a3,3,0,0,1,.95-1,2.57,2.57,0,0,1,1.4-.35,3.36,3.36,0,0,1,1.9.7q1,.7,2.42,1.55a18.46,18.46,0,0,0,3.47,1.55,16,16,0,0,0,5.1.7,13.91,13.91,0,0,0,4.55-.68,9.55,9.55,0,0,0,3.25-1.82,7.24,7.24,0,0,0,1.92-2.65,8.25,8.25,0,0,0,.63-3.2,5.31,5.31,0,0,0-1.12-3.47,9.51,9.51,0,0,0-3-2.35,24.35,24.35,0,0,0-4.23-1.7q-2.37-.73-4.85-1.53t-4.85-1.83a17,17,0,0,1-4.22-2.58,11.65,11.65,0,0,1-3-3.82,12.37,12.37,0,0,1-1.12-5.53,13.48,13.48,0,0,1,1.2-5.58,13.7,13.7,0,0,1,3.5-4.7,17.24,17.24,0,0,1,5.65-3.22,22.61,22.61,0,0,1,7.65-1.2,24.2,24.2,0,0,1,9,1.58,21.24,21.24,0,0,1,6.88,4.33Z"/><path class="cls-7" d="M2395.38,986.48l-20.65,50.65h-8l-20.65-50.65h7.25a2.83,2.83,0,0,1,1.8.55,2.76,2.76,0,0,1,.95,1.3l12.85,32.6q.6,1.85,1,3.6t.85,3.5q.4-1.75.85-3.5t1.1-3.6l13-32.6a2.89,2.89,0,0,1,1-1.33,2.67,2.67,0,0,1,1.65-.53Z"/><path class="cls-7" d="M2445.13,988.48v3.3q0,1.65-2.1,2.1l-5.75.75a16.55,16.55,0,0,1,.27,14,15.38,15.38,0,0,1-3.92,5.17,17.42,17.42,0,0,1-6,3.3,24.19,24.19,0,0,1-7.6,1.15,25.59,25.59,0,0,1-6.7-.85,9,9,0,0,0-2.45,2.13,3.75,3.75,0,0,0-.85,2.28,3,3,0,0,0,1.47,2.72,10.55,10.55,0,0,0,3.88,1.33,41.67,41.67,0,0,0,5.48.5q3.07.1,6.3.33a59.11,59.11,0,0,1,6.3.77,19.07,19.07,0,0,1,5.47,1.8,10.32,10.32,0,0,1,3.88,3.45,10.05,10.05,0,0,1,1.48,5.7,13.24,13.24,0,0,1-1.62,6.3,17.08,17.08,0,0,1-4.67,5.43,24.09,24.09,0,0,1-7.48,3.8,32.46,32.46,0,0,1-10,1.42,38.14,38.14,0,0,1-9.7-1.1,22.8,22.8,0,0,1-6.9-3,12.87,12.87,0,0,1-4.12-4.28,10.14,10.14,0,0,1-1.37-5.08,9.12,9.12,0,0,1,2.35-6.35,16.26,16.26,0,0,1,6.45-4.15,9.22,9.22,0,0,1-3.58-2.67,7.09,7.09,0,0,1-1.33-4.52,7,7,0,0,1,.4-2.28,9.32,9.32,0,0,1,1.22-2.35,12.54,12.54,0,0,1,2-2.23,13.13,13.13,0,0,1,2.8-1.85,15.57,15.57,0,0,1-5.85-5.58,15.31,15.31,0,0,1-2.1-8.08,15.58,15.58,0,0,1,1.42-6.72,14.88,14.88,0,0,1,4-5.15,18.18,18.18,0,0,1,6.07-3.27,26.49,26.49,0,0,1,13.88-.43,19.54,19.54,0,0,1,5.2,2.13Zm-9,51.4a4.27,4.27,0,0,0-1-3,7,7,0,0,0-2.83-1.8,18.23,18.23,0,0,0-4.12-.92q-2.35-.28-5-.43l-5.33-.3q-2.7-.15-5.2-.5a13.94,13.94,0,0,0-4.58,3.28,6.7,6.7,0,0,0-1.77,4.63,6.11,6.11,0,0,0,.88,3.17,7.45,7.45,0,0,0,2.67,2.55,15.67,15.67,0,0,0,4.52,1.7,32.81,32.81,0,0,0,12.88,0,16.21,16.21,0,0,0,4.83-1.85,9.09,9.09,0,0,0,3-2.85A6.66,6.66,0,0,0,2436.08,1039.88Zm-16-27.5a13.8,13.8,0,0,0,4.75-.75,9.7,9.7,0,0,0,3.45-2.1,8.61,8.61,0,0,0,2.1-3.23,11.71,11.71,0,0,0,.7-4.12,9.85,9.85,0,0,0-2.83-7.4Q2425.38,992,2420,992t-8.23,2.75a9.85,9.85,0,0,0-2.82,7.4,11.35,11.35,0,0,0,.72,4.13,8.85,8.85,0,0,0,2.13,3.23,9.69,9.69,0,0,0,3.45,2.1A13.79,13.79,0,0,0,2420,1012.38Z"/><rect class="cls-6" x="93.08" y="1625.66" width="287.92" height="287.92"/><path class="cls-7" d="M475.75,1759.86a28.91,28.91,0,0,1,9-6.05,28,28,0,0,1,10.75-2,19.18,19.18,0,0,1,7.55,1.4,15.5,15.5,0,0,1,5.55,3.9,16.52,16.52,0,0,1,3.4,6,25.21,25.21,0,0,1,1.15,7.8v32.4h-4a3.88,3.88,0,0,1-2-.43,2.89,2.89,0,0,1-1.1-1.67l-1-4.8a49.71,49.71,0,0,1-3.9,3.28,22.41,22.41,0,0,1-4,2.4,21.92,21.92,0,0,1-4.48,1.5,24.52,24.52,0,0,1-5.27.52,18.21,18.21,0,0,1-5.55-.82,12.83,12.83,0,0,1-4.53-2.47,11.64,11.64,0,0,1-3-4.18,14.58,14.58,0,0,1-1.12-6,11.14,11.14,0,0,1,1.65-5.78,14.46,14.46,0,0,1,5.35-4.92,35,35,0,0,1,9.65-3.53,73.73,73.73,0,0,1,14.6-1.58V1771q0-5.9-2.55-8.93t-7.45-3a16,16,0,0,0-5.52.82,20.85,20.85,0,0,0-3.85,1.85q-1.63,1-2.8,1.85a4,4,0,0,1-2.33.83,2.55,2.55,0,0,1-1.55-.47,4.35,4.35,0,0,1-1.1-1.18Zm28.75,20.7a74.55,74.55,0,0,0-10.48,1,29.89,29.89,0,0,0-7,2,9.74,9.74,0,0,0-4,3,6.34,6.34,0,0,0-1.23,3.8,8.38,8.38,0,0,0,.65,3.45,6.41,6.41,0,0,0,1.77,2.38,7.11,7.11,0,0,0,2.65,1.35,12.16,12.16,0,0,0,3.27.42,18.09,18.09,0,0,0,4.3-.47,16.21,16.21,0,0,0,3.67-1.37,20.65,20.65,0,0,0,3.3-2.15,28.26,28.26,0,0,0,3.08-2.85Z"/><path class="cls-7" d="M535.7,1760a26,26,0,0,1,7.23-5.9,19,19,0,0,1,9.27-2.2,18.46,18.46,0,0,1,8,1.7,16.68,16.68,0,0,1,6.08,4.92,23,23,0,0,1,3.82,7.83,37.4,37.4,0,0,1,1.33,10.35,39.24,39.24,0,0,1-1.5,11.2,25.42,25.42,0,0,1-4.33,8.63,19.61,19.61,0,0,1-6.87,5.55,20.49,20.49,0,0,1-9.1,2,17.34,17.34,0,0,1-8.43-1.87,18.44,18.44,0,0,1-6-5.32l-.45,4.6a2.14,2.14,0,0,1-2.3,1.9h-5.75v-73.65h9Zm0,31.15a14.3,14.3,0,0,0,5.38,4.65,15.14,15.14,0,0,0,6.42,1.35q7.15,0,11-5t3.8-15.05q0-9.3-3.37-13.67t-9.62-4.37a14.07,14.07,0,0,0-7.57,2,22.3,22.3,0,0,0-6,5.65Z"/><path class="cls-7" d="M604.1,1751.91a25.81,25.81,0,0,1,10,1.85,21.41,21.41,0,0,1,7.6,5.25,23,23,0,0,1,4.83,8.22,35.58,35.58,0,0,1,0,21.57,23.09,23.09,0,0,1-4.83,8.2,21.18,21.18,0,0,1-7.6,5.22,26.14,26.14,0,0,1-10,1.82,26.46,26.46,0,0,1-10.07-1.82,21.12,21.12,0,0,1-7.62-5.22,23.07,23.07,0,0,1-4.83-8.2,35.58,35.58,0,0,1,0-21.57,23,23,0,0,1,4.83-8.22,21.35,21.35,0,0,1,7.63-5.25A26.13,26.13,0,0,1,604.1,1751.91Zm0,45.2q7.5,0,11.2-5t3.7-14q0-9-3.7-14.1t-11.2-5.05a15.7,15.7,0,0,0-6.62,1.3,12.32,12.32,0,0,0-4.7,3.75,16.66,16.66,0,0,0-2.8,6,32.26,32.26,0,0,0-.92,8.07q0,9,3.73,14T604.1,1797.11Z"/><path class="cls-7" d="M681.1,1752.71v50.65h-5.3a2.27,2.27,0,0,1-2.4-1.85l-.7-5.45a27.84,27.84,0,0,1-7.4,5.88,19.4,19.4,0,0,1-9.4,2.22,18.27,18.27,0,0,1-7.33-1.37,14.49,14.49,0,0,1-5.32-3.87,16.43,16.43,0,0,1-3.23-6,27,27,0,0,1-1.08-7.85v-32.3h8.9V1785q0,5.75,2.63,8.9t8,3.15a15.12,15.12,0,0,0,7.38-1.87,23.45,23.45,0,0,0,6.32-5.17v-37.3Z"/><path class="cls-7" d="M710.75,1804.16q-6,0-9.23-3.35t-3.23-9.65v-31h-6.1a2,2,0,0,1-1.35-.47,1.84,1.84,0,0,1-.55-1.47v-3.55l8.3-1,2-15.65a2.18,2.18,0,0,1,.67-1.22,2,2,0,0,1,1.38-.47h4.5v17.45h14.65v6.45H707.2v30.4a6.46,6.46,0,0,0,1.55,4.75,5.41,5.41,0,0,0,4,1.55,7.06,7.06,0,0,0,2.42-.37,10.35,10.35,0,0,0,1.77-.83q.75-.45,1.28-.82a1.67,1.67,0,0,1,.92-.37,1.53,1.53,0,0,1,1.25.85l2.6,4.25a16.58,16.58,0,0,1-5.55,3.38A18.85,18.85,0,0,1,710.75,1804.16Z"/><path class="cls-7" d="M729.55,1797.86a6.38,6.38,0,0,1,1.78-4.45,6.23,6.23,0,0,1,6.88-1.35,6.33,6.33,0,0,1,3.35,3.35,6.11,6.11,0,0,1,.5,2.45,6,6,0,0,1-.5,2.47,6.51,6.51,0,0,1-1.35,2,6.08,6.08,0,0,1-2,1.33,6.56,6.56,0,0,1-4.9,0,5.77,5.77,0,0,1-2-1.33,6.26,6.26,0,0,1-1.78-4.45Z"/><path class="cls-7" d="M763.6,1759.46a26.86,26.86,0,0,1,7.2-5.5,19.47,19.47,0,0,1,9.1-2.05,18.3,18.3,0,0,1,7.33,1.38,14.21,14.21,0,0,1,5.3,3.9,17.24,17.24,0,0,1,3.23,6.08,26.46,26.46,0,0,1,1.1,7.85v32.25h-9v-32.25q0-5.75-2.62-8.93t-8-3.17a15,15,0,0,0-7.37,1.9,24.3,24.3,0,0,0-6.33,5.15v37.3h-9v-73.65h9Z"/><path class="cls-7" d="M825.3,1804.16q-6,0-9.22-3.35t-3.22-9.65v-31h-6.1a2,2,0,0,1-1.35-.47,1.84,1.84,0,0,1-.55-1.47v-3.55l8.3-1,2-15.65a2.18,2.18,0,0,1,.67-1.22,2,2,0,0,1,1.38-.47h4.5v17.45H836.4v6.45H821.75v30.4a6.46,6.46,0,0,0,1.55,4.75,5.41,5.41,0,0,0,4,1.55,7.07,7.07,0,0,0,2.43-.37,10.36,10.36,0,0,0,1.77-.83q.75-.45,1.28-.82a1.66,1.66,0,0,1,.92-.37,1.53,1.53,0,0,1,1.25.85l2.6,4.25a16.57,16.57,0,0,1-5.55,3.38A18.85,18.85,0,0,1,825.3,1804.16Z"/><path class="cls-7" d="M845.59,1803.36v-50.65h5.35a2.2,2.2,0,0,1,2.35,1.85l.65,5.2a25.75,25.75,0,0,1,6.3-5.65,14.89,14.89,0,0,1,8.1-2.2,11.92,11.92,0,0,1,8.28,2.85,16,16,0,0,1,4.58,7.7,16.71,16.71,0,0,1,2.82-4.75,16.17,16.17,0,0,1,3.88-3.3,16.4,16.4,0,0,1,4.58-1.9,20.41,20.41,0,0,1,4.92-.6,18.74,18.74,0,0,1,7.13,1.28,14.11,14.11,0,0,1,5.3,3.72,16.62,16.62,0,0,1,3.32,6,26.69,26.69,0,0,1,1.15,8.18v32.25h-9v-32.25q0-6-2.6-9t-7.5-3.07a11.34,11.34,0,0,0-4.17.77,10.07,10.07,0,0,0-3.48,2.28,10.67,10.67,0,0,0-2.37,3.78,14.65,14.65,0,0,0-.87,5.28v32.25h-9v-32.25q0-6.1-2.45-9.1t-7.15-3a11.18,11.18,0,0,0-6.1,1.77,20.24,20.24,0,0,0-5.15,4.83v37.75Z"/><path class="cls-7" d="M937,1729.71v73.65h-8.9v-73.65Z"/><path class="cls-7" d="M488.35,970.58a5.67,5.67,0,0,1-.52,2.42,7,7,0,0,1-1.4,2,6.42,6.42,0,0,1-2,1.38,6.25,6.25,0,0,1-2.48.5,5.89,5.89,0,0,1-2.42-.5,6.27,6.27,0,0,1-2-1.37,6.8,6.8,0,0,1-1.35-2,5.9,5.9,0,0,1-.5-2.42,6.26,6.26,0,0,1,.5-2.48,6.65,6.65,0,0,1,1.35-2,6.3,6.3,0,0,1,2-1.37,5.91,5.91,0,0,1,2.42-.5,6.26,6.26,0,0,1,2.48.5,6.45,6.45,0,0,1,2,1.38,6.81,6.81,0,0,1,1.4,2A6,6,0,0,1,488.35,970.58Zm-1.9,15.9v50.65h-8.9V986.48Z"/><path class="cls-7" d="M501,1037.13V986.48h5.35a2.2,2.2,0,0,1,2.35,1.85l.65,5.2a25.76,25.76,0,0,1,6.3-5.65,14.89,14.89,0,0,1,8.1-2.2,11.92,11.92,0,0,1,8.28,2.85,16,16,0,0,1,4.57,7.7,16.71,16.71,0,0,1,2.83-4.75,16.15,16.15,0,0,1,3.88-3.3,16.39,16.39,0,0,1,4.57-1.9,20.41,20.41,0,0,1,4.93-.6A18.72,18.72,0,0,1,560,987a14.11,14.11,0,0,1,5.3,3.72,16.61,16.61,0,0,1,3.33,6,26.7,26.7,0,0,1,1.15,8.17v32.25h-9v-32.25q0-6-2.6-9t-7.5-3.07a11.33,11.33,0,0,0-4.18.77,10.07,10.07,0,0,0-3.48,2.28,10.67,10.67,0,0,0-2.37,3.77,14.64,14.64,0,0,0-.87,5.28v32.25h-8.95v-32.25q0-6.1-2.45-9.1t-7.15-3a11.18,11.18,0,0,0-6.1,1.77,20.23,20.23,0,0,0-5.15,4.83v37.75Z"/><path class="cls-7" d="M626,988.48v3.3q0,1.65-2.1,2.1l-5.75.75a16.55,16.55,0,0,1,.27,14,15.4,15.4,0,0,1-3.93,5.17,17.42,17.42,0,0,1-6,3.3,24.19,24.19,0,0,1-7.6,1.15,25.59,25.59,0,0,1-6.7-.85,9,9,0,0,0-2.45,2.13,3.75,3.75,0,0,0-.85,2.28,3,3,0,0,0,1.47,2.72,10.55,10.55,0,0,0,3.88,1.33,41.67,41.67,0,0,0,5.48.5q3.08.1,6.3.33a59.1,59.1,0,0,1,6.3.77,19.08,19.08,0,0,1,5.48,1.8,10.33,10.33,0,0,1,3.88,3.45,10.06,10.06,0,0,1,1.48,5.7,13.24,13.24,0,0,1-1.62,6.3,17.07,17.07,0,0,1-4.68,5.43,24.08,24.08,0,0,1-7.48,3.8,32.46,32.46,0,0,1-10,1.42,38.14,38.14,0,0,1-9.7-1.1,22.8,22.8,0,0,1-6.9-3,12.86,12.86,0,0,1-4.12-4.28,10.14,10.14,0,0,1-1.37-5.08,9.12,9.12,0,0,1,2.35-6.35,16.26,16.26,0,0,1,6.45-4.15,9.21,9.21,0,0,1-3.57-2.67,7.75,7.75,0,0,1-.93-6.8,9.35,9.35,0,0,1,1.23-2.35,12.57,12.57,0,0,1,2-2.23,13.14,13.14,0,0,1,2.8-1.85,15.56,15.56,0,0,1-5.85-5.58,15.3,15.3,0,0,1-2.1-8.08,15.59,15.59,0,0,1,1.42-6.72,14.88,14.88,0,0,1,4-5.15,18.19,18.19,0,0,1,6.08-3.27,26.49,26.49,0,0,1,13.88-.43,19.54,19.54,0,0,1,5.2,2.13Zm-9,51.4a4.28,4.28,0,0,0-1-3,7,7,0,0,0-2.83-1.8,18.23,18.23,0,0,0-4.12-.92q-2.35-.28-5-.43l-5.32-.3q-2.7-.15-5.2-.5a14,14,0,0,0-4.58,3.28,6.7,6.7,0,0,0-1.77,4.63A6.12,6.12,0,0,0,588,1044a7.46,7.46,0,0,0,2.68,2.55,15.65,15.65,0,0,0,4.52,1.7,32.81,32.81,0,0,0,12.88,0,16.21,16.21,0,0,0,4.82-1.85,9.09,9.09,0,0,0,3-2.85A6.67,6.67,0,0,0,617,1039.88Zm-16-27.5a13.8,13.8,0,0,0,4.75-.75,9.7,9.7,0,0,0,3.45-2.1,8.61,8.61,0,0,0,2.1-3.23,11.72,11.72,0,0,0,.7-4.12,9.85,9.85,0,0,0-2.83-7.4Q606.3,992,600.95,992t-8.23,2.75a9.85,9.85,0,0,0-2.83,7.4,11.35,11.35,0,0,0,.73,4.13,8.85,8.85,0,0,0,2.13,3.23,9.69,9.69,0,0,0,3.45,2.1A13.79,13.79,0,0,0,600.95,1012.38Z"/><path class="cls-7" d="M486.45,593.23v54.4a19.39,19.39,0,0,1-.8,5.67,12,12,0,0,1-2.55,4.58,12.13,12.13,0,0,1-4.48,3.07,17.07,17.07,0,0,1-6.52,1.13,15.48,15.48,0,0,1-5.65-1l.35-4.8a1.36,1.36,0,0,1,.33-.68,1,1,0,0,1,.63-.28,6.6,6.6,0,0,1,1,0q.63,0,1.58,0,3.9,0,5.55-1.82t1.65-5.87v-54.4Zm1.85-15.9a5.66,5.66,0,0,1-.52,2.43,7,7,0,0,1-1.4,2,6.51,6.51,0,0,1-2,1.38,6.07,6.07,0,0,1-2.45.5,5.89,5.89,0,0,1-2.42-.5,6.28,6.28,0,0,1-2-1.37,6.81,6.81,0,0,1-1.35-2,5.9,5.9,0,0,1-.5-2.43,6.26,6.26,0,0,1,.5-2.47,6.64,6.64,0,0,1,1.35-2.05,6.32,6.32,0,0,1,2-1.37,5.92,5.92,0,0,1,2.42-.5,6.1,6.1,0,0,1,2.45.5,6.55,6.55,0,0,1,2,1.38,6.8,6.8,0,0,1,1.4,2.05A6,6,0,0,1,488.3,577.33Z"/><path class="cls-7" d="M530.55,601.58a2,2,0,0,1-1.85,1.1,3.47,3.47,0,0,1-1.7-.55q-1-.55-2.33-1.22a21.67,21.67,0,0,0-3.27-1.25,15.64,15.64,0,0,0-4.5-.58,13.29,13.29,0,0,0-4,.58,9.73,9.73,0,0,0-3.08,1.57,7,7,0,0,0-1.95,2.32,6.25,6.25,0,0,0-.68,2.88,4.79,4.79,0,0,0,1.13,3.25,9.76,9.76,0,0,0,3,2.25,25.68,25.68,0,0,0,4.2,1.68q2.35.73,4.82,1.55T525.1,617a17.56,17.56,0,0,1,4.2,2.5,11.43,11.43,0,0,1,3,3.68,11.24,11.24,0,0,1,1.13,5.22,16.54,16.54,0,0,1-1.25,6.47,14.14,14.14,0,0,1-3.7,5.15,17.84,17.84,0,0,1-6,3.42,24.64,24.64,0,0,1-8.2,1.25,25.57,25.57,0,0,1-9.6-1.72,24.35,24.35,0,0,1-7.3-4.42l2.1-3.4a3,3,0,0,1,.95-1,2.57,2.57,0,0,1,1.4-.35,3.35,3.35,0,0,1,1.9.7q1,.7,2.42,1.55a18.47,18.47,0,0,0,3.48,1.55,16,16,0,0,0,5.1.7,13.93,13.93,0,0,0,4.55-.68,9.57,9.57,0,0,0,3.25-1.82,7.24,7.24,0,0,0,1.92-2.65,8.24,8.24,0,0,0,.63-3.2,5.31,5.31,0,0,0-1.12-3.47,9.52,9.52,0,0,0-3-2.35,24.19,24.19,0,0,0-4.23-1.7q-2.38-.73-4.85-1.53T507,619.06a17,17,0,0,1-4.23-2.57,11.67,11.67,0,0,1-3-3.82,12.37,12.37,0,0,1-1.12-5.53,13.49,13.49,0,0,1,1.2-5.58,13.68,13.68,0,0,1,3.5-4.7,17.21,17.21,0,0,1,5.65-3.22,22.59,22.59,0,0,1,7.65-1.2,24.18,24.18,0,0,1,9,1.58,21.24,21.24,0,0,1,6.88,4.32Z"/><path class="cls-7" d="M512.3,209a4,4,0,0,1-.8.85,1.8,1.8,0,0,1-1.1.3,3,3,0,0,1-1.65-.62q-.9-.62-2.23-1.37a17.84,17.84,0,0,0-3.25-1.37,17.52,17.52,0,0,0-11.32.7,12.7,12.7,0,0,0-4.78,3.83,17.32,17.32,0,0,0-2.9,6,30,30,0,0,0-1,8,29,29,0,0,0,1.05,8.17,17.42,17.42,0,0,0,3,6,12.79,12.79,0,0,0,4.65,3.7,14.28,14.28,0,0,0,6.13,1.27,14.7,14.7,0,0,0,8.82-2.5q1.37-.95,2.3-1.72a2.86,2.86,0,0,1,1.82-.78,2,2,0,0,1,1.7.85l2.5,3.25a17.73,17.73,0,0,1-3.75,3.5,23.12,23.12,0,0,1-4.52,2.42,24.64,24.64,0,0,1-5.08,1.42,32.22,32.22,0,0,1-5.4.45,22.14,22.14,0,0,1-8.83-1.75,20.12,20.12,0,0,1-7.07-5.08,23.76,23.76,0,0,1-4.7-8.17,36.12,36.12,0,0,1-.12-21.5,23.68,23.68,0,0,1,4.6-8.28,20.9,20.9,0,0,1,7.45-5.42,25,25,0,0,1,10.17-2,24,24,0,0,1,9.42,1.73,22.55,22.55,0,0,1,7.23,4.88Z"/><path class="cls-7" d="M554.3,208.34a2,2,0,0,1-1.85,1.1,3.47,3.47,0,0,1-1.7-.55q-1-.55-2.33-1.22a21.77,21.77,0,0,0-3.27-1.25,15.64,15.64,0,0,0-4.5-.58,13.29,13.29,0,0,0-4,.58,9.73,9.73,0,0,0-3.08,1.57,7,7,0,0,0-1.95,2.33,6.24,6.24,0,0,0-.68,2.88,4.79,4.79,0,0,0,1.13,3.25,9.76,9.76,0,0,0,3,2.25,25.77,25.77,0,0,0,4.2,1.67q2.35.73,4.82,1.55t4.83,1.82a17.56,17.56,0,0,1,4.2,2.5,11.44,11.44,0,0,1,3,3.68,11.24,11.24,0,0,1,1.13,5.22,16.54,16.54,0,0,1-1.25,6.47,14.13,14.13,0,0,1-3.7,5.15,17.84,17.84,0,0,1-6,3.42,24.66,24.66,0,0,1-8.2,1.25,25.59,25.59,0,0,1-9.6-1.72,24.33,24.33,0,0,1-7.3-4.42l2.1-3.4a3,3,0,0,1,.95-1,2.57,2.57,0,0,1,1.4-.35,3.36,3.36,0,0,1,1.9.7q1,.7,2.42,1.55a18.47,18.47,0,0,0,3.48,1.55,16,16,0,0,0,5.1.7,13.91,13.91,0,0,0,4.55-.68,9.55,9.55,0,0,0,3.25-1.82,7.24,7.24,0,0,0,1.92-2.65,8.24,8.24,0,0,0,.63-3.2,5.31,5.31,0,0,0-1.12-3.47,9.51,9.51,0,0,0-3-2.35,24.34,24.34,0,0,0-4.23-1.7q-2.38-.73-4.85-1.53t-4.85-1.83a17,17,0,0,1-4.23-2.58,11.65,11.65,0,0,1-3-3.82,12.37,12.37,0,0,1-1.12-5.53,13.48,13.48,0,0,1,1.2-5.58,13.69,13.69,0,0,1,3.5-4.7,17.23,17.23,0,0,1,5.65-3.22,22.61,22.61,0,0,1,7.65-1.2,24.2,24.2,0,0,1,9,1.58,21.24,21.24,0,0,1,6.88,4.33Z"/><path class="cls-7" d="M597.6,208.34a2,2,0,0,1-1.85,1.1,3.47,3.47,0,0,1-1.7-.55q-1-.55-2.33-1.22a21.77,21.77,0,0,0-3.27-1.25,15.64,15.64,0,0,0-4.5-.58,13.29,13.29,0,0,0-4,.58,9.73,9.73,0,0,0-3.08,1.57,7,7,0,0,0-1.95,2.33,6.24,6.24,0,0,0-.68,2.88,4.79,4.79,0,0,0,1.13,3.25,9.76,9.76,0,0,0,3,2.25,25.77,25.77,0,0,0,4.2,1.67q2.35.73,4.82,1.55t4.83,1.82a17.56,17.56,0,0,1,4.2,2.5,11.44,11.44,0,0,1,3,3.68,11.24,11.24,0,0,1,1.13,5.22,16.54,16.54,0,0,1-1.25,6.47,14.13,14.13,0,0,1-3.7,5.15,17.84,17.84,0,0,1-6,3.42,24.66,24.66,0,0,1-8.2,1.25,25.59,25.59,0,0,1-9.6-1.72,24.33,24.33,0,0,1-7.3-4.42l2.1-3.4a3,3,0,0,1,.95-1,2.57,2.57,0,0,1,1.4-.35,3.36,3.36,0,0,1,1.9.7q1,.7,2.42,1.55a18.47,18.47,0,0,0,3.48,1.55,16,16,0,0,0,5.1.7,13.91,13.91,0,0,0,4.55-.68,9.55,9.55,0,0,0,3.25-1.82,7.24,7.24,0,0,0,1.92-2.65,8.24,8.24,0,0,0,.63-3.2,5.31,5.31,0,0,0-1.12-3.47,9.51,9.51,0,0,0-3-2.35,24.34,24.34,0,0,0-4.23-1.7q-2.38-.73-4.85-1.53t-4.85-1.83a17,17,0,0,1-4.23-2.58,11.65,11.65,0,0,1-3-3.82,12.37,12.37,0,0,1-1.12-5.53,13.48,13.48,0,0,1,1.2-5.58,13.69,13.69,0,0,1,3.5-4.7,17.23,17.23,0,0,1,5.65-3.22,22.61,22.61,0,0,1,7.65-1.2,24.2,24.2,0,0,1,9,1.58,21.24,21.24,0,0,1,6.88,4.33Z"/></svg>