<svg id="Layer_01" data-name="Layer 01" xmlns="http://www.w3.org/2000/svg" viewBox="0 0 539.92 139.55"><defs><style>.cls-1{fill:#313131;}.cls-2{fill:#a0a0a0;}.cls-3{fill:#ff9100;}</style></defs><title>git copy</title><rect class="cls-1" x="121.13" y="34.99" width="386.92" height="2"/><path class="cls-2" d="M457.58,87.46H440.76a1,1,0,0,1,0-2h16.82A15.84,15.84,0,0,0,473.4,69.64V52.82A17.84,17.84,0,0,1,491.22,35H508a1,1,0,0,1,0,2H491.22A15.84,15.84,0,0,0,475.4,52.82V69.64A17.84,17.84,0,0,1,457.58,87.46Z"/><path class="cls-2" d="M289.35,87.46H272.53a1,1,0,0,1,0-2h16.82a15.84,15.84,0,0,0,15.82-15.82V52.82A17.84,17.84,0,0,1,323,35h16.82a1,1,0,0,1,0,2H323a15.84,15.84,0,0,0-15.82,15.82V69.64A17.84,17.84,0,0,1,289.35,87.46Z"/><circle class="cls-1" cx="339.82" cy="35.99" r="8.41"/><path class="cls-2" d="M188.42,87.46H171.6a17.84,17.84,0,0,1-17.82-17.82V52.82A15.84,15.84,0,0,0,138,37H121.13a1,1,0,0,1,0-2H138a17.84,17.84,0,0,1,17.82,17.82V69.64A15.84,15.84,0,0,0,171.6,85.46h16.82a1,1,0,0,1,0,2Z"/><path class="cls-2" d="M457.58,87.46H188.42a1,1,0,0,1,0-2H457.58a1,1,0,0,1,0,2Z"/><path class="cls-1" d="M37.75,32v.55c0,.18-.11.28-.32.32l-.55.1a1.87,1.87,0,0,1,.13.7,1.8,1.8,0,0,1-.69,1.45,2.39,2.39,0,0,1-.76.4,3.12,3.12,0,0,1-1,.14l-.35,0-.33,0q-.29.17-.29.39a.29.29,0,0,0,.17.27,1.37,1.37,0,0,0,.45.12,6.21,6.21,0,0,0,.64,0l.74,0a6.05,6.05,0,0,1,.74.11,2.15,2.15,0,0,1,.64.24,1.26,1.26,0,0,1,.45.44,1.35,1.35,0,0,1,.17.72,1.68,1.68,0,0,1-.2.79,2.13,2.13,0,0,1-.58.68,3,3,0,0,1-.94.48,4,4,0,0,1-1.26.18A4.78,4.78,0,0,1,33.45,40a2.89,2.89,0,0,1-.86-.36,1.55,1.55,0,0,1-.51-.52,1.21,1.21,0,0,1-.17-.61,1,1,0,0,1,.26-.72,1.82,1.82,0,0,1,.72-.46A1,1,0,0,1,32.5,37a1,1,0,0,1-.14-.55.86.86,0,0,1,.05-.29,1.21,1.21,0,0,1,.15-.29,1.43,1.43,0,0,1,.25-.27,1.68,1.68,0,0,1,.35-.23,1.94,1.94,0,0,1-.73-.67,1.79,1.79,0,0,1-.27-1,1.83,1.83,0,0,1,.18-.83,1.86,1.86,0,0,1,.51-.63,2.32,2.32,0,0,1,.77-.4,3.48,3.48,0,0,1,1.72-.06A2.58,2.58,0,0,1,36,32Zm-1.48,6.22a.41.41,0,0,0-.11-.29.72.72,0,0,0-.29-.18,2.14,2.14,0,0,0-.44-.09l-.53,0-.58,0-.58,0a1.39,1.39,0,0,0-.4.32.66.66,0,0,0-.15.43.59.59,0,0,0,.08.3.67.67,0,0,0,.26.24A1.52,1.52,0,0,0,34,39a4.16,4.16,0,0,0,1.4,0,1.74,1.74,0,0,0,.5-.17.75.75,0,0,0,.29-.26A.64.64,0,0,0,36.27,38.26Zm-1.67-3.5a1.37,1.37,0,0,0,.48-.08.94.94,0,0,0,.34-.21.86.86,0,0,0,.2-.32,1.16,1.16,0,0,0,.07-.41,1,1,0,0,0-.27-.72,1.39,1.39,0,0,0-1.64,0,1,1,0,0,0-.27.72,1.15,1.15,0,0,0,.07.4.87.87,0,0,0,.2.32.9.9,0,0,0,.34.21A1.38,1.38,0,0,0,34.6,34.76Z"/><path class="cls-1" d="M40.17,32.49a3.21,3.21,0,0,1,.79-.55,2.28,2.28,0,0,1,1-.21,2.2,2.2,0,0,1,.89.17,1.76,1.76,0,0,1,.65.48,2.11,2.11,0,0,1,.4.74,3.13,3.13,0,0,1,.14.95V38H42.56V34.07a1.33,1.33,0,0,0-.26-.87,1,1,0,0,0-.79-.31,1.54,1.54,0,0,0-.72.17,2.55,2.55,0,0,0-.64.47V38H38.68V29.07h1.48Z"/><path class="cls-1" d="M45.4,33.74h3.11V35H45.4Z"/><path class="cls-1" d="M51.33,32.67a3.2,3.2,0,0,1,.86-.69,2.3,2.3,0,0,1,1.13-.26,2,2,0,0,1,.92.21,2.07,2.07,0,0,1,.72.61,2.93,2.93,0,0,1,.47,1,5,5,0,0,1,.17,1.34,4.21,4.21,0,0,1-.19,1.28,3.13,3.13,0,0,1-.53,1,2.46,2.46,0,0,1-.83.67,2.42,2.42,0,0,1-1.1.24,2.2,2.2,0,0,1-.88-.16,2.15,2.15,0,0,1-.65-.44V40H49.93V31.83h.91a.37.37,0,0,1,.38.27Zm.08,3.72a1.46,1.46,0,0,0,.55.43,1.63,1.63,0,0,0,.65.13,1.42,1.42,0,0,0,.61-.13,1.19,1.19,0,0,0,.46-.38,1.89,1.89,0,0,0,.29-.65,3.73,3.73,0,0,0,.1-.93,4.14,4.14,0,0,0-.09-.92,1.78,1.78,0,0,0-.25-.61,1,1,0,0,0-.39-.34,1.22,1.22,0,0,0-.52-.11,1.5,1.5,0,0,0-.79.2,2.4,2.4,0,0,0-.61.55Z"/><path class="cls-1" d="M56.6,32.69a3.65,3.65,0,0,1,2.56-1,2.5,2.5,0,0,1,1,.18,2,2,0,0,1,.72.49,2.12,2.12,0,0,1,.45.75,2.89,2.89,0,0,1,.15,1V38h-.67a.68.68,0,0,1-.32-.06.44.44,0,0,1-.18-.25l-.13-.44a5.26,5.26,0,0,1-.46.37,2.7,2.7,0,0,1-.46.27,2.53,2.53,0,0,1-.51.17,3,3,0,0,1-.6.06,2.39,2.39,0,0,1-.72-.1,1.59,1.59,0,0,1-.57-.32,1.41,1.41,0,0,1-.37-.52,1.85,1.85,0,0,1-.13-.73,1.44,1.44,0,0,1,.08-.46,1.36,1.36,0,0,1,.25-.44,2.11,2.11,0,0,1,.46-.4,3,3,0,0,1,.69-.32,6,6,0,0,1,1-.22A9.4,9.4,0,0,1,60,34.46v-.36a1.35,1.35,0,0,0-.26-.92,1,1,0,0,0-.76-.3,1.82,1.82,0,0,0-.6.08,2.46,2.46,0,0,0-.42.19l-.33.19a.64.64,0,0,1-.33.08.43.43,0,0,1-.26-.08.69.69,0,0,1-.17-.19ZM60,35.36a8.15,8.15,0,0,0-1.08.11,2.92,2.92,0,0,0-.7.21.92.92,0,0,0-.38.29.73.73,0,0,0,.12.92,1,1,0,0,0,.6.17,1.77,1.77,0,0,0,.79-.17,2.36,2.36,0,0,0,.65-.5Z"/><path class="cls-1" d="M68.23,32v.55c0,.18-.11.28-.32.32l-.55.1a1.87,1.87,0,0,1,.13.7,1.8,1.8,0,0,1-.69,1.45,2.4,2.4,0,0,1-.77.4,3.11,3.11,0,0,1-1,.14l-.35,0-.33,0q-.29.17-.29.39a.29.29,0,0,0,.17.27,1.38,1.38,0,0,0,.45.12,6.23,6.23,0,0,0,.64,0l.74,0a6.05,6.05,0,0,1,.74.11,2.14,2.14,0,0,1,.64.24,1.25,1.25,0,0,1,.45.44,1.35,1.35,0,0,1,.17.72,1.68,1.68,0,0,1-.2.79,2.14,2.14,0,0,1-.58.68,3,3,0,0,1-.94.48,4,4,0,0,1-1.26.18A4.78,4.78,0,0,1,63.93,40a2.89,2.89,0,0,1-.86-.36,1.55,1.55,0,0,1-.51-.52,1.21,1.21,0,0,1-.17-.61,1,1,0,0,1,.26-.72,1.82,1.82,0,0,1,.72-.46A1,1,0,0,1,63,37a1,1,0,0,1-.14-.55.86.86,0,0,1,.05-.29,1.23,1.23,0,0,1,.15-.29,1.46,1.46,0,0,1,.25-.27,1.7,1.7,0,0,1,.35-.23,1.93,1.93,0,0,1-.74-.67,1.8,1.8,0,0,1-.27-1,1.83,1.83,0,0,1,.18-.83,1.86,1.86,0,0,1,.51-.63,2.33,2.33,0,0,1,.77-.4,3.48,3.48,0,0,1,1.72-.06,2.58,2.58,0,0,1,.64.24Zm-1.48,6.22a.41.41,0,0,0-.11-.29.72.72,0,0,0-.29-.18,2.15,2.15,0,0,0-.44-.09l-.53,0-.58,0-.58,0a1.38,1.38,0,0,0-.4.32.66.66,0,0,0-.15.43.59.59,0,0,0,.08.3.66.66,0,0,0,.26.24,1.52,1.52,0,0,0,.46.16,4.17,4.17,0,0,0,1.4,0,1.74,1.74,0,0,0,.5-.17.74.74,0,0,0,.28-.26A.64.64,0,0,0,66.76,38.26Zm-1.67-3.5a1.37,1.37,0,0,0,.48-.08.94.94,0,0,0,.34-.21.86.86,0,0,0,.2-.32,1.17,1.17,0,0,0,.07-.41A1,1,0,0,0,65.9,33a1.39,1.39,0,0,0-1.64,0,1,1,0,0,0-.27.72,1.15,1.15,0,0,0,.07.4.87.87,0,0,0,.2.32.9.9,0,0,0,.34.21A1.38,1.38,0,0,0,65.08,34.76Z"/><path class="cls-1" d="M70.2,35.09a2.93,2.93,0,0,0,.17.82,1.67,1.67,0,0,0,.35.57,1.37,1.37,0,0,0,.51.34,1.86,1.86,0,0,0,.66.11,2,2,0,0,0,.62-.08,2.85,2.85,0,0,0,.46-.19l.34-.19a.57.57,0,0,1,.28-.08.31.31,0,0,1,.28.14l.43.54a2.48,2.48,0,0,1-.55.48,3.12,3.12,0,0,1-.64.31,3.51,3.51,0,0,1-.68.17,5,5,0,0,1-.67,0,3.29,3.29,0,0,1-1.19-.21,2.68,2.68,0,0,1-1-.63,3,3,0,0,1-.64-1,4,4,0,0,1-.23-1.42,3.39,3.39,0,0,1,.2-1.19,2.84,2.84,0,0,1,.58-1,2.76,2.76,0,0,1,.93-.65,3.08,3.08,0,0,1,1.24-.24,3,3,0,0,1,1.07.19,2.36,2.36,0,0,1,.85.54,2.52,2.52,0,0,1,.55.88,3.27,3.27,0,0,1,.2,1.19,1,1,0,0,1-.07.45.3.3,0,0,1-.28.12ZM73,34.2a1.79,1.79,0,0,0-.08-.54,1.28,1.28,0,0,0-.24-.45,1.13,1.13,0,0,0-.41-.3,1.4,1.4,0,0,0-.58-.11,1.37,1.37,0,0,0-1,.37,1.79,1.79,0,0,0-.47,1Z"/><path class="cls-1" d="M79.22,33a.4.4,0,0,1-.13.13.33.33,0,0,1-.17,0,.53.53,0,0,1-.23-.06L78.41,33a2.6,2.6,0,0,0-.37-.13,1.77,1.77,0,0,0-.49-.06,1.13,1.13,0,0,0-.69.19.58.58,0,0,0-.25.49.46.46,0,0,0,.13.33,1.15,1.15,0,0,0,.34.24,3.29,3.29,0,0,0,.48.18l.55.18c.19.06.37.14.55.22a1.93,1.93,0,0,1,.48.31A1.37,1.37,0,0,1,79.63,36a2.08,2.08,0,0,1-.16.82,1.76,1.76,0,0,1-.47.65,2.2,2.2,0,0,1-.77.43,3.62,3.62,0,0,1-1.68.1,3.63,3.63,0,0,1-.58-.16,3.28,3.28,0,0,1-.52-.24,2.47,2.47,0,0,1-.42-.3l.34-.56a.48.48,0,0,1,.16-.16.44.44,0,0,1,.23-.05.48.48,0,0,1,.26.08l.28.17a2.45,2.45,0,0,0,.38.17,1.65,1.65,0,0,0,.55.08,1.44,1.44,0,0,0,.45-.06,1,1,0,0,0,.31-.17.63.63,0,0,0,.18-.24.72.72,0,0,0,.06-.28.5.5,0,0,0-.13-.35,1.14,1.14,0,0,0-.34-.24,3.26,3.26,0,0,0-.49-.18l-.56-.18a5.09,5.09,0,0,1-.56-.22,1.9,1.9,0,0,1-.49-.33,1.47,1.47,0,0,1-.34-.49,1.69,1.69,0,0,1-.13-.7,1.78,1.78,0,0,1,.15-.72,1.69,1.69,0,0,1,.44-.6,2.2,2.2,0,0,1,.73-.41,3.34,3.34,0,0,1,2.16.06,2.63,2.63,0,0,1,.87.55Z"/><path class="cls-1" d="M17.81,79.53v8.92H16.9a.35.35,0,0,1-.37-.27l-.13-.59a3.12,3.12,0,0,1-.85.69,2.31,2.31,0,0,1-1.12.26,2,2,0,0,1-1.65-.82,2.92,2.92,0,0,1-.47-1,5,5,0,0,1-.17-1.34,4.19,4.19,0,0,1,.19-1.27,3.08,3.08,0,0,1,.53-1,2.49,2.49,0,0,1,.83-.67,2.41,2.41,0,0,1,1.09-.24,2.18,2.18,0,0,1,.88.16,2.25,2.25,0,0,1,.65.44V79.53Zm-1.48,4.33a1.46,1.46,0,0,0-.55-.43,1.62,1.62,0,0,0-.64-.13,1.42,1.42,0,0,0-.61.13,1.21,1.21,0,0,0-.46.38,1.83,1.83,0,0,0-.29.65,3.75,3.75,0,0,0-.1.93,4.11,4.11,0,0,0,.09.92,1.8,1.8,0,0,0,.25.61.94.94,0,0,0,.4.34,1.26,1.26,0,0,0,.52.11,1.52,1.52,0,0,0,.79-.19,2.33,2.33,0,0,0,.61-.55Z"/><path class="cls-1" d="M20.41,85.56a2.9,2.9,0,0,0,.17.82,1.67,1.67,0,0,0,.35.57,1.37,1.37,0,0,0,.51.34,1.86,1.86,0,0,0,.66.11,2,2,0,0,0,.62-.08,2.87,2.87,0,0,0,.46-.19l.34-.19a.58.58,0,0,1,.29-.08.31.31,0,0,1,.28.14l.43.54A2.49,2.49,0,0,1,24,88a3.11,3.11,0,0,1-.64.31,3.5,3.5,0,0,1-.68.17,5,5,0,0,1-.67,0,3.3,3.3,0,0,1-1.19-.21,2.69,2.69,0,0,1-1-.63,3,3,0,0,1-.64-1,4,4,0,0,1-.23-1.42,3.41,3.41,0,0,1,.2-1.19,2.85,2.85,0,0,1,.58-1,2.77,2.77,0,0,1,.93-.65,3.08,3.08,0,0,1,1.24-.24,3,3,0,0,1,1.07.19,2.35,2.35,0,0,1,.85.54,2.52,2.52,0,0,1,.56.88,3.27,3.27,0,0,1,.2,1.19,1,1,0,0,1-.07.45.3.3,0,0,1-.28.12Zm2.83-.89a1.77,1.77,0,0,0-.08-.54,1.29,1.29,0,0,0-.24-.45,1.13,1.13,0,0,0-.41-.3,1.41,1.41,0,0,0-.58-.11,1.37,1.37,0,0,0-1,.37,1.8,1.8,0,0,0-.47,1Z"/><path class="cls-1" d="M31.07,82.29l-2.44,6.16H27.29l-2.44-6.16h1.22a.48.48,0,0,1,.28.08.37.37,0,0,1,.15.2l1.19,3.29c.06.19.12.38.17.56s.09.37.13.55q.06-.28.13-.55c0-.18.11-.37.17-.56l1.21-3.29a.4.4,0,0,1,.15-.2.43.43,0,0,1,.26-.08Z"/><path class="cls-1" d="M32.81,85.56a2.93,2.93,0,0,0,.17.82,1.67,1.67,0,0,0,.35.57,1.37,1.37,0,0,0,.51.34,1.86,1.86,0,0,0,.66.11,2,2,0,0,0,.62-.08,2.85,2.85,0,0,0,.46-.19l.34-.19a.57.57,0,0,1,.28-.08.31.31,0,0,1,.28.14l.43.54a2.48,2.48,0,0,1-.55.48,3.12,3.12,0,0,1-.64.31,3.51,3.51,0,0,1-.68.17,5,5,0,0,1-.67,0,3.29,3.29,0,0,1-1.19-.21,2.68,2.68,0,0,1-1-.63,3,3,0,0,1-.64-1,4,4,0,0,1-.23-1.42,3.39,3.39,0,0,1,.2-1.19,2.84,2.84,0,0,1,.58-1,2.76,2.76,0,0,1,.93-.65,3.08,3.08,0,0,1,1.24-.24,3,3,0,0,1,1.07.19,2.36,2.36,0,0,1,.85.54,2.52,2.52,0,0,1,.55.88A3.27,3.27,0,0,1,37,85a1,1,0,0,1-.07.45.3.3,0,0,1-.28.12Zm2.83-.89a1.79,1.79,0,0,0-.08-.54,1.28,1.28,0,0,0-.24-.45,1.13,1.13,0,0,0-.41-.3,1.4,1.4,0,0,0-.58-.11,1.37,1.37,0,0,0-1,.37,1.79,1.79,0,0,0-.47,1Z"/><path class="cls-1" d="M39.58,79.53v8.92H38.09V79.53Z"/><path class="cls-1" d="M43.78,82.2a3.37,3.37,0,0,1,1.24.22A2.68,2.68,0,0,1,46.6,84a4.13,4.13,0,0,1,0,2.63,2.8,2.8,0,0,1-.62,1,2.69,2.69,0,0,1-1,.64,3.37,3.37,0,0,1-1.24.22,3.41,3.41,0,0,1-1.25-.22,2.69,2.69,0,0,1-1-.64,2.86,2.86,0,0,1-.62-1,4.06,4.06,0,0,1,0-2.63,2.81,2.81,0,0,1,.62-1,2.74,2.74,0,0,1,1-.63A3.41,3.41,0,0,1,43.78,82.2Zm0,5.2a1.3,1.3,0,0,0,1.14-.52,2.59,2.59,0,0,0,.37-1.51,2.62,2.62,0,0,0-.37-1.52,1.3,1.3,0,0,0-1.14-.52,1.32,1.32,0,0,0-1.15.53,2.58,2.58,0,0,0-.37,1.51,2.56,2.56,0,0,0,.38,1.51A1.33,1.33,0,0,0,43.78,87.4Z"/><path class="cls-1" d="M49.35,83.13a3.2,3.2,0,0,1,.86-.69,2.3,2.3,0,0,1,1.13-.26,2,2,0,0,1,.92.21A2.07,2.07,0,0,1,53,83a2.91,2.91,0,0,1,.47,1,5,5,0,0,1,.17,1.34,4.21,4.21,0,0,1-.19,1.28,3.12,3.12,0,0,1-.53,1,2.4,2.4,0,0,1-1.93.92,2.2,2.2,0,0,1-.88-.16,2.16,2.16,0,0,1-.65-.44v2.52H48V82.29h.91a.36.36,0,0,1,.38.27Zm.08,3.72a1.46,1.46,0,0,0,.55.43,1.64,1.64,0,0,0,.65.13,1.41,1.41,0,0,0,.61-.13,1.18,1.18,0,0,0,.46-.38,1.88,1.88,0,0,0,.29-.65,3.7,3.7,0,0,0,.1-.93,4.14,4.14,0,0,0-.09-.92,1.8,1.8,0,0,0-.25-.61,1,1,0,0,0-.39-.34,1.22,1.22,0,0,0-.52-.11,1.5,1.5,0,0,0-.79.2,2.41,2.41,0,0,0-.61.55Z"/><path class="cls-1" d="M54.77,88.45V82.29h.91a.36.36,0,0,1,.38.27l.1.46a3.64,3.64,0,0,1,.34-.33,2.16,2.16,0,0,1,.38-.26,2.08,2.08,0,0,1,.43-.17,1.92,1.92,0,0,1,.51-.06,1.44,1.44,0,0,1,1,.31,1.9,1.9,0,0,1,.56.84,1.88,1.88,0,0,1,.36-.52,2,2,0,0,1,.47-.36,2.19,2.19,0,0,1,.55-.2,2.64,2.64,0,0,1,.58-.07,2.46,2.46,0,0,1,.91.16,1.74,1.74,0,0,1,.67.46,2,2,0,0,1,.41.73,3.18,3.18,0,0,1,.14,1v3.92H61.93V84.53a1.32,1.32,0,0,0-.26-.89,1,1,0,0,0-.76-.3,1.13,1.13,0,0,0-.42.08,1,1,0,0,0-.57.59,1.43,1.43,0,0,0-.08.51v3.92H58.35V84.53a1.34,1.34,0,0,0-.25-.9.92.92,0,0,0-.73-.28,1.2,1.2,0,0,0-.6.16,2,2,0,0,0-.52.44v4.51Z"/><path class="cls-1" d="M66,85.56a2.9,2.9,0,0,0,.17.82,1.67,1.67,0,0,0,.35.57,1.37,1.37,0,0,0,.51.34,1.86,1.86,0,0,0,.66.11,2,2,0,0,0,.62-.08,2.87,2.87,0,0,0,.46-.19l.34-.19a.58.58,0,0,1,.29-.08.31.31,0,0,1,.28.14l.43.54a2.49,2.49,0,0,1-.55.48,3.11,3.11,0,0,1-.64.31,3.5,3.5,0,0,1-.68.17,5,5,0,0,1-.67,0,3.3,3.3,0,0,1-1.19-.21,2.69,2.69,0,0,1-1-.63,3,3,0,0,1-.64-1,4,4,0,0,1-.23-1.42,3.41,3.41,0,0,1,.2-1.19,2.85,2.85,0,0,1,.58-1,2.77,2.77,0,0,1,.93-.65,3.08,3.08,0,0,1,1.24-.24,3,3,0,0,1,1.07.19,2.35,2.35,0,0,1,.85.54,2.52,2.52,0,0,1,.56.88,3.27,3.27,0,0,1,.2,1.19,1,1,0,0,1-.07.45.3.3,0,0,1-.28.12Zm2.83-.89a1.77,1.77,0,0,0-.08-.54,1.29,1.29,0,0,0-.24-.45,1.13,1.13,0,0,0-.41-.3,1.41,1.41,0,0,0-.58-.11,1.37,1.37,0,0,0-1,.37,1.8,1.8,0,0,0-.47,1Z"/><path class="cls-1" d="M72.61,83a3.92,3.92,0,0,1,.39-.34,2.47,2.47,0,0,1,.44-.27,2.41,2.41,0,0,1,1.07-.24,2.2,2.2,0,0,1,.89.17,1.77,1.77,0,0,1,.65.48,2.11,2.11,0,0,1,.4.74,3.13,3.13,0,0,1,.14.95v3.92H75.11V84.53a1.33,1.33,0,0,0-.26-.87,1,1,0,0,0-.79-.31,1.54,1.54,0,0,0-.72.17,2.54,2.54,0,0,0-.64.47v4.45H71.22V82.29h.91a.37.37,0,0,1,.38.27Z"/><path class="cls-1" d="M80,88.55a1.62,1.62,0,0,1-1.23-.45,1.74,1.74,0,0,1-.43-1.25V83.4h-.63a.29.29,0,0,1-.2-.08.3.3,0,0,1-.08-.23V82.5l1-.16.31-1.68a.33.33,0,0,1,.11-.19.34.34,0,0,1,.22-.07h.77v1.94h1.64V83.4H79.78v3.34a.66.66,0,0,0,.14.45.49.49,0,0,0,.39.16.71.71,0,0,0,.23,0l.16-.07.12-.07a.21.21,0,0,1,.11,0,.17.17,0,0,1,.11,0l.09.1.44.72a2.24,2.24,0,0,1-.74.41A2.77,2.77,0,0,1,80,88.55Z"/><path class="cls-1" d="M330.8,14.93v7.23h-1.18V17.49c0-.19,0-.39,0-.6L327.46,21a.5.5,0,0,1-.47.29h-.19a.5.5,0,0,1-.47-.29l-2.21-4.12c0,.11,0,.22,0,.32s0,.21,0,.29v4.67H323V14.93h1.17l.12,0a.27.27,0,0,1,.1.06.56.56,0,0,1,.08.12l2.17,4c.06.11.11.22.16.33l.14.35.15-.36c0-.11.1-.22.16-.33l2.13-4a.5.5,0,0,1,.08-.12l.1-.06.12,0h1.17Z"/><path class="cls-1" d="M333,19.75a2.42,2.42,0,0,0,.14.68,1.39,1.39,0,0,0,.29.47,1.12,1.12,0,0,0,.43.28,1.53,1.53,0,0,0,.55.09,1.69,1.69,0,0,0,.52-.07,2.47,2.47,0,0,0,.38-.16l.29-.16a.48.48,0,0,1,.24-.07.26.26,0,0,1,.23.12l.35.45a2.09,2.09,0,0,1-.46.4,2.66,2.66,0,0,1-.53.26,2.91,2.91,0,0,1-.57.14,3.94,3.94,0,0,1-.56,0,2.76,2.76,0,0,1-1-.18,2.23,2.23,0,0,1-.8-.53,2.46,2.46,0,0,1-.54-.86,3.31,3.31,0,0,1-.2-1.19,2.84,2.84,0,0,1,.17-1,2.37,2.37,0,0,1,.49-.8,2.3,2.3,0,0,1,.78-.54,2.56,2.56,0,0,1,1-.2,2.5,2.5,0,0,1,.89.15,1.94,1.94,0,0,1,.71.45,2.07,2.07,0,0,1,.46.73,2.73,2.73,0,0,1,.17,1,.8.8,0,0,1-.06.38.25.25,0,0,1-.23.1Zm2.35-.74a1.5,1.5,0,0,0-.07-.45,1.07,1.07,0,0,0-.2-.37,1,1,0,0,0-.34-.25,1.2,1.2,0,0,0-.48-.09,1.14,1.14,0,0,0-.84.3A1.5,1.5,0,0,0,333,19Z"/><path class="cls-1" d="M338.57,17.92a2.21,2.21,0,0,1,.57-.72,1.22,1.22,0,0,1,.78-.26,1,1,0,0,1,.57.16l-.08.92a.23.23,0,0,1-.07.13.2.2,0,0,1-.13,0l-.22,0-.29,0a1,1,0,0,0-.37.06.93.93,0,0,0-.29.17,1.2,1.2,0,0,0-.22.27,2.69,2.69,0,0,0-.18.36v3.16H337.4V17h.72a.3.3,0,0,1,.37.31Z"/><path class="cls-1" d="M345.58,17.2v.46c0,.15-.09.24-.27.27l-.46.08a1.58,1.58,0,0,1,.1.58,1.5,1.5,0,0,1-.58,1.21,2,2,0,0,1-.64.33,2.57,2.57,0,0,1-.79.12h-.29l-.28,0c-.16.1-.24.21-.24.33a.24.24,0,0,0,.14.23,1.17,1.17,0,0,0,.38.1l.54,0,.62,0a5.07,5.07,0,0,1,.62.09,1.82,1.82,0,0,1,.53.2,1,1,0,0,1,.38.37,1.13,1.13,0,0,1,.14.6,1.41,1.41,0,0,1-.17.66,1.77,1.77,0,0,1-.48.57,2.53,2.53,0,0,1-.78.4A3.36,3.36,0,0,1,343,24a4.05,4.05,0,0,1-1-.11,2.4,2.4,0,0,1-.71-.3,1.29,1.29,0,0,1-.42-.43,1,1,0,0,1-.14-.51.87.87,0,0,1,.22-.6,1.49,1.49,0,0,1,.6-.39.87.87,0,0,1-.33-.28.8.8,0,0,1-.12-.46.76.76,0,0,1,0-.24,1.08,1.08,0,0,1,.13-.24,1.18,1.18,0,0,1,.21-.23,1.4,1.4,0,0,1,.29-.19,1.61,1.61,0,0,1-.61-.56,1.49,1.49,0,0,1-.22-.82,1.5,1.5,0,0,1,.58-1.21,1.94,1.94,0,0,1,.64-.33,2.91,2.91,0,0,1,1.43,0,2.14,2.14,0,0,1,.53.2Zm-1.23,5.19a.34.34,0,0,0-.09-.25A.59.59,0,0,0,344,22a1.84,1.84,0,0,0-.36-.08l-.44,0-.48,0-.48,0a1.15,1.15,0,0,0-.33.27.54.54,0,0,0-.13.36.5.5,0,0,0,.07.25.57.57,0,0,0,.21.2,1.3,1.3,0,0,0,.38.13,3.43,3.43,0,0,0,1.17,0,1.47,1.47,0,0,0,.41-.14.64.64,0,0,0,.24-.22A.54.54,0,0,0,344.35,22.39ZM343,19.47a1.18,1.18,0,0,0,.4-.06.79.79,0,0,0,.28-.17.71.71,0,0,0,.17-.27,1,1,0,0,0,.06-.34.8.8,0,0,0-.23-.6,1.16,1.16,0,0,0-1.37,0,.8.8,0,0,0-.23.6,1,1,0,0,0,.06.33.72.72,0,0,0,.17.27.74.74,0,0,0,.29.18A1.17,1.17,0,0,0,343,19.47Z"/><path class="cls-1" d="M347.22,19.75a2.42,2.42,0,0,0,.14.68,1.39,1.39,0,0,0,.29.47,1.12,1.12,0,0,0,.43.28,1.53,1.53,0,0,0,.55.09,1.69,1.69,0,0,0,.52-.07,2.47,2.47,0,0,0,.38-.16l.29-.16a.48.48,0,0,1,.24-.07.26.26,0,0,1,.23.12l.35.45a2.09,2.09,0,0,1-.46.4,2.66,2.66,0,0,1-.53.26,2.91,2.91,0,0,1-.57.14,3.94,3.94,0,0,1-.56,0,2.76,2.76,0,0,1-1-.18,2.23,2.23,0,0,1-.8-.53,2.46,2.46,0,0,1-.54-.86,3.31,3.31,0,0,1-.2-1.19,2.84,2.84,0,0,1,.17-1,2.37,2.37,0,0,1,.49-.8,2.3,2.3,0,0,1,.78-.54,2.56,2.56,0,0,1,1-.2,2.5,2.5,0,0,1,.89.15,1.94,1.94,0,0,1,.71.45,2.07,2.07,0,0,1,.46.73,2.73,2.73,0,0,1,.17,1,.8.8,0,0,1-.06.38.25.25,0,0,1-.23.1Zm2.35-.74a1.5,1.5,0,0,0-.07-.45,1.07,1.07,0,0,0-.2-.37,1,1,0,0,0-.34-.25,1.2,1.2,0,0,0-.48-.09,1.14,1.14,0,0,0-.84.3,1.5,1.5,0,0,0-.39.87Z"/><path class="cls-1" d="M356.06,14.73v7.43h-.75a.29.29,0,0,1-.31-.22l-.11-.5a2.56,2.56,0,0,1-.71.58,1.93,1.93,0,0,1-.94.22,1.69,1.69,0,0,1-.77-.18,1.71,1.71,0,0,1-.6-.51,2.42,2.42,0,0,1-.39-.82,4.14,4.14,0,0,1-.14-1.12,3.49,3.49,0,0,1,.16-1.06,2.58,2.58,0,0,1,.45-.85,2.07,2.07,0,0,1,.69-.56,2,2,0,0,1,.91-.2,1.81,1.81,0,0,1,.74.13,1.89,1.89,0,0,1,.54.37V14.73Zm-1.23,3.61a1.22,1.22,0,0,0-.46-.36,1.35,1.35,0,0,0-.53-.11,1.18,1.18,0,0,0-.5.11,1,1,0,0,0-.38.32,1.51,1.51,0,0,0-.25.54,3.11,3.11,0,0,0-.08.77,3.46,3.46,0,0,0,.07.76,1.48,1.48,0,0,0,.21.51.79.79,0,0,0,.33.29,1,1,0,0,0,.43.09,1.27,1.27,0,0,0,.66-.16,2,2,0,0,0,.51-.46Z"/><path class="cls-1" d="M357.31,21.48a.77.77,0,0,1,.06-.29.7.7,0,0,1,.16-.24.82.82,0,0,1,.24-.16.77.77,0,0,1,.3-.06.76.76,0,0,1,.29.06.82.82,0,0,1,.24.16.73.73,0,0,1,.16.24.75.75,0,0,1-.16.83.78.78,0,0,1-.24.16.8.8,0,0,1-.29.06.81.81,0,0,1-.3-.06.78.78,0,0,1-.24-.16.71.71,0,0,1-.16-.24A.77.77,0,0,1,357.31,21.48Zm1.36-6.55v2.86a8.66,8.66,0,0,1,0,.89q0,.44-.12.93h-.84q-.07-.49-.12-.93a8.66,8.66,0,0,1,0-.89V14.93Z"/><path class="cls-1" d="M185.42,101.1l-2.92,7.23h-1.21l-2.92-7.23h1.08a.46.46,0,0,1,.29.09.52.52,0,0,1,.17.22l1.7,4.41c.06.14.11.3.16.47s.1.35.15.54q.06-.28.13-.54a4.63,4.63,0,0,1,.16-.47l1.69-4.41a.47.47,0,0,1,.16-.21.44.44,0,0,1,.29-.1Z"/><path class="cls-1" d="M186.57,104.09a2.22,2.22,0,0,1,.57-.72,1.22,1.22,0,0,1,.78-.26,1,1,0,0,1,.57.15l-.08.93a.24.24,0,0,1-.07.13.2.2,0,0,1-.13,0l-.22,0-.29,0a1.06,1.06,0,0,0-.37.06.92.92,0,0,0-.29.17,1.16,1.16,0,0,0-.23.27,2.71,2.71,0,0,0-.18.37v3.16h-1.23V103.2h.72a.4.4,0,0,1,.27.07.4.4,0,0,1,.1.24Z"/><path class="cls-1" d="M189,103.92a3,3,0,0,1,2.13-.81,2.1,2.1,0,0,1,.81.15,1.73,1.73,0,0,1,.6.41,1.77,1.77,0,0,1,.37.63,2.41,2.41,0,0,1,.13.8v3.24h-.56a.57.57,0,0,1-.27-.05.36.36,0,0,1-.15-.21l-.11-.37a4.29,4.29,0,0,1-.38.31,2.19,2.19,0,0,1-.39.22,2.07,2.07,0,0,1-.43.14,2.5,2.5,0,0,1-.5,0,2,2,0,0,1-.6-.09,1.33,1.33,0,0,1-.48-.26,1.18,1.18,0,0,1-.31-.44,1.55,1.55,0,0,1-.11-.61,1.2,1.2,0,0,1,.06-.39,1.12,1.12,0,0,1,.21-.37,1.76,1.76,0,0,1,.38-.33,2.51,2.51,0,0,1,.58-.27,4.88,4.88,0,0,1,.8-.19,8,8,0,0,1,1-.09v-.3a1.12,1.12,0,0,0-.22-.76.8.8,0,0,0-.63-.25,1.5,1.5,0,0,0-.5.07,2.12,2.12,0,0,0-.35.16l-.27.16a.53.53,0,0,1-.27.07.36.36,0,0,1-.22-.07.58.58,0,0,1-.15-.16Zm2.83,2.23a6.67,6.67,0,0,0-.9.09,2.39,2.39,0,0,0-.58.17.76.76,0,0,0-.31.25.61.61,0,0,0,.1.77.83.83,0,0,0,.5.14,1.47,1.47,0,0,0,.66-.14,1.94,1.94,0,0,0,.54-.42Z"/><path class="cls-1" d="M198.66,103.2l-2.79,6.54a.48.48,0,0,1-.14.2.44.44,0,0,1-.27.07h-.92l1-2.06-2.07-4.75h1.08a.35.35,0,0,1,.23.07.45.45,0,0,1,.12.16l1.09,2.66a2.55,2.55,0,0,1,.09.27l.07.28.09-.28.1-.27,1-2.66a.36.36,0,0,1,.13-.16.35.35,0,0,1,.21-.07Z"/><path class="cls-1" d="M179.06,120.33h-1.21a.53.53,0,0,1-.5-.27l-1.52-2.32a.52.52,0,0,0-.19-.18.65.65,0,0,0-.3-.06h-.58v2.83h-1.35V113.1h2.21a4.59,4.59,0,0,1,1.26.15,2.43,2.43,0,0,1,.87.43,1.67,1.67,0,0,1,.5.66,2.15,2.15,0,0,1,.16.84,2.19,2.19,0,0,1-.11.69,2,2,0,0,1-.31.59,2.11,2.11,0,0,1-.5.47,2.51,2.51,0,0,1-.68.31,1.31,1.31,0,0,1,.24.18,1.23,1.23,0,0,1,.2.24Zm-3.46-3.79a2.11,2.11,0,0,0,.66-.09,1.27,1.27,0,0,0,.46-.26,1,1,0,0,0,.27-.4,1.37,1.37,0,0,0,.09-.5,1,1,0,0,0-.36-.84,1.73,1.73,0,0,0-1.11-.29h-.86v2.4Z"/><path class="cls-1" d="M180.27,117.92a2.41,2.41,0,0,0,.14.68,1.39,1.39,0,0,0,.29.48,1.13,1.13,0,0,0,.43.28,1.53,1.53,0,0,0,.55.09,1.69,1.69,0,0,0,.52-.07,2.34,2.34,0,0,0,.38-.16l.28-.15a.48.48,0,0,1,.24-.07.26.26,0,0,1,.23.12l.35.45a2.06,2.06,0,0,1-.46.4,2.58,2.58,0,0,1-.53.26,2.92,2.92,0,0,1-.56.14,4.11,4.11,0,0,1-.56,0,2.74,2.74,0,0,1-1-.18,2.24,2.24,0,0,1-.8-.52,2.47,2.47,0,0,1-.54-.86,3.33,3.33,0,0,1-.2-1.19,2.84,2.84,0,0,1,.17-1,2.37,2.37,0,0,1,.49-.8,2.29,2.29,0,0,1,.77-.54,2.56,2.56,0,0,1,1-.2,2.51,2.51,0,0,1,.9.16,2,2,0,0,1,.71.45,2.1,2.1,0,0,1,.46.73,2.71,2.71,0,0,1,.17,1,.8.8,0,0,1-.06.38.25.25,0,0,1-.23.1Zm2.35-.74a1.49,1.49,0,0,0-.07-.45,1.09,1.09,0,0,0-.2-.37,1,1,0,0,0-.34-.25,1.18,1.18,0,0,0-.48-.09,1.15,1.15,0,0,0-.84.31,1.49,1.49,0,0,0-.39.87Z"/><path class="cls-1" d="M185.81,115.83a3.2,3.2,0,0,1,.33-.29,2,2,0,0,1,.37-.23,2.06,2.06,0,0,1,.41-.15,2.11,2.11,0,0,1,.48-.05,1.84,1.84,0,0,1,.74.14,1.47,1.47,0,0,1,.54.4,1.76,1.76,0,0,1,.33.62,2.61,2.61,0,0,1,.11.79v3.27h-1.23v-3.27a1.1,1.1,0,0,0-.22-.73.8.8,0,0,0-.65-.26,1.3,1.3,0,0,0-.6.14,2.17,2.17,0,0,0-.53.4v3.71h-1.23V115.2h.75a.3.3,0,0,1,.31.23Z"/><path class="cls-1" d="M194.75,112.9v7.43H194a.29.29,0,0,1-.31-.22l-.1-.5a2.59,2.59,0,0,1-.71.58,1.93,1.93,0,0,1-.94.22,1.67,1.67,0,0,1-1.37-.68,2.44,2.44,0,0,1-.39-.82,4.17,4.17,0,0,1-.14-1.12,3.5,3.5,0,0,1,.15-1.06,2.56,2.56,0,0,1,.44-.85,2.07,2.07,0,0,1,.7-.56,2,2,0,0,1,.91-.2,1.81,1.81,0,0,1,.73.13,1.86,1.86,0,0,1,.55.37V112.9Zm-1.23,3.61a1.22,1.22,0,0,0-.46-.36,1.34,1.34,0,0,0-.53-.11,1.18,1.18,0,0,0-.51.11,1,1,0,0,0-.39.32,1.53,1.53,0,0,0-.24.54,3.08,3.08,0,0,0-.08.77,3.44,3.44,0,0,0,.07.76,1.51,1.51,0,0,0,.21.51.8.8,0,0,0,.33.29,1,1,0,0,0,.44.09,1.27,1.27,0,0,0,.65-.16,2,2,0,0,0,.51-.46Z"/><path class="cls-1" d="M196.92,117.92a2.43,2.43,0,0,0,.14.68,1.4,1.4,0,0,0,.29.48,1.13,1.13,0,0,0,.43.28,1.54,1.54,0,0,0,.55.09,1.69,1.69,0,0,0,.52-.07,2.36,2.36,0,0,0,.38-.16l.28-.15a.48.48,0,0,1,.24-.07.26.26,0,0,1,.23.12l.36.45a2.06,2.06,0,0,1-.46.4,2.6,2.6,0,0,1-.53.26,2.93,2.93,0,0,1-.56.14,4.1,4.1,0,0,1-.56,0,2.75,2.75,0,0,1-1-.18,2.24,2.24,0,0,1-.8-.52,2.48,2.48,0,0,1-.54-.86,3.33,3.33,0,0,1-.19-1.19,2.84,2.84,0,0,1,.17-1,2.36,2.36,0,0,1,.49-.8,2.28,2.28,0,0,1,.77-.54,2.56,2.56,0,0,1,1-.2,2.51,2.51,0,0,1,.9.16,2,2,0,0,1,.71.45,2.11,2.11,0,0,1,.46.73,2.72,2.72,0,0,1,.17,1,.81.81,0,0,1-.06.38.25.25,0,0,1-.23.1Zm2.35-.74a1.48,1.48,0,0,0-.07-.45,1.09,1.09,0,0,0-.2-.37,1,1,0,0,0-.34-.25,1.18,1.18,0,0,0-.48-.09,1.14,1.14,0,0,0-.84.31,1.49,1.49,0,0,0-.39.87Z"/><path class="cls-1" d="M202.48,116.09a2.23,2.23,0,0,1,.57-.72,1.22,1.22,0,0,1,.78-.26,1,1,0,0,1,.57.15l-.08.93a.24.24,0,0,1-.07.13.2.2,0,0,1-.13,0l-.22,0-.29,0a1.05,1.05,0,0,0-.36.06.92.92,0,0,0-.29.17,1.16,1.16,0,0,0-.22.27,2.65,2.65,0,0,0-.18.37v3.16h-1.23V115.2H202a.3.3,0,0,1,.36.31Z"/><path class="cls-1" d="M224,101.1a4.13,4.13,0,0,1,1.25.17,2.41,2.41,0,0,1,.88.48,1.87,1.87,0,0,1,.51.73,2.51,2.51,0,0,1,.17.93,2.56,2.56,0,0,1-.18,1,2,2,0,0,1-.52.75,2.42,2.42,0,0,1-.88.49,3.9,3.9,0,0,1-1.23.18h-1v2.54h-1.34V101.1Zm0,3.63a2,2,0,0,0,.65-.09,1.22,1.22,0,0,0,.46-.27,1.05,1.05,0,0,0,.27-.42,1.59,1.59,0,0,0,.09-.55,1.45,1.45,0,0,0-.09-.53,1,1,0,0,0-.27-.4,1.2,1.2,0,0,0-.46-.25,2.18,2.18,0,0,0-.65-.09h-1v2.59Z"/><path class="cls-1" d="M231.68,102.42a.47.47,0,0,1-.13.15.28.28,0,0,1-.17,0,.42.42,0,0,1-.23-.08l-.29-.17a2.39,2.39,0,0,0-.4-.17,1.67,1.67,0,0,0-.54-.08,1.61,1.61,0,0,0-.49.07,1,1,0,0,0-.35.19.75.75,0,0,0-.21.29.94.94,0,0,0-.07.37.63.63,0,0,0,.14.42,1.19,1.19,0,0,0,.38.29,3.51,3.51,0,0,0,.54.21l.62.2a5.55,5.55,0,0,1,.61.25,2.11,2.11,0,0,1,.54.36,1.61,1.61,0,0,1,.38.53,1.85,1.85,0,0,1,.14.76,2.48,2.48,0,0,1-.17.92,2.11,2.11,0,0,1-.49.75,2.3,2.3,0,0,1-.79.5,2.89,2.89,0,0,1-1.06.18,3.45,3.45,0,0,1-.68-.07,3.67,3.67,0,0,1-.64-.19,3.44,3.44,0,0,1-.58-.3,2.77,2.77,0,0,1-.48-.39l.4-.65a.44.44,0,0,1,.13-.12.33.33,0,0,1,.17,0,.48.48,0,0,1,.27.1l.34.23a2.73,2.73,0,0,0,.47.23,1.79,1.79,0,0,0,.64.1,1.32,1.32,0,0,0,.89-.27,1,1,0,0,0,.31-.78.72.72,0,0,0-.14-.46,1.14,1.14,0,0,0-.38-.3,2.79,2.79,0,0,0-.54-.21l-.61-.18a5.52,5.52,0,0,1-.61-.24,2,2,0,0,1-.54-.37,1.67,1.67,0,0,1-.38-.56,2.14,2.14,0,0,1-.14-.83,2,2,0,0,1,.16-.77,2,2,0,0,1,.46-.67,2.26,2.26,0,0,1,.74-.46,2.71,2.71,0,0,1,1-.18,3.37,3.37,0,0,1,1.18.2,2.66,2.66,0,0,1,.92.56Z"/><path class="cls-1" d="M239.74,104.72a3.91,3.91,0,0,1-.27,1.46,3.36,3.36,0,0,1-.74,1.14,3.32,3.32,0,0,1-1.16.74,4.05,4.05,0,0,1-1.5.27h-2.75V101.1h2.75a4.05,4.05,0,0,1,1.5.27,3.39,3.39,0,0,1,1.16.75,3.34,3.34,0,0,1,.74,1.14A3.91,3.91,0,0,1,239.74,104.72Zm-1.38,0a3.37,3.37,0,0,0-.16-1.07,2.21,2.21,0,0,0-.46-.8,2,2,0,0,0-.72-.5,2.46,2.46,0,0,0-1-.18h-1.41v5.09h1.41a2.47,2.47,0,0,0,1-.17,2,2,0,0,0,.72-.5,2.21,2.21,0,0,0,.46-.8A3.38,3.38,0,0,0,238.36,104.72Z"/><path class="cls-1" d="M224.88,116.71v2.92a3.82,3.82,0,0,1-1.17.59,4.6,4.6,0,0,1-1.33.19,4.44,4.44,0,0,1-1.6-.28,3.58,3.58,0,0,1-1.22-.76,3.36,3.36,0,0,1-.78-1.17,3.93,3.93,0,0,1-.27-1.49,4.08,4.08,0,0,1,.26-1.49,3.3,3.3,0,0,1,1.94-1.93,4.27,4.27,0,0,1,1.56-.27,4.55,4.55,0,0,1,.82.07,4.14,4.14,0,0,1,.71.19,3,3,0,0,1,.6.3,3.62,3.62,0,0,1,.5.38l-.38.61a.37.37,0,0,1-.24.18.41.41,0,0,1-.31-.07l-.33-.19a2.07,2.07,0,0,0-.37-.17,3,3,0,0,0-.45-.12,3.33,3.33,0,0,0-.58,0,2.48,2.48,0,0,0-1,.18,2,2,0,0,0-.74.51,2.33,2.33,0,0,0-.47.81,3.14,3.14,0,0,0-.17,1,3.21,3.21,0,0,0,.18,1.11,2.33,2.33,0,0,0,.5.83,2.11,2.11,0,0,0,.78.51,2.75,2.75,0,0,0,1,.18,2.71,2.71,0,0,0,.71-.08,3.6,3.6,0,0,0,.62-.23v-1.31h-.91a.27.27,0,0,1-.2-.07.24.24,0,0,1-.07-.18v-.76Z"/><path class="cls-1" d="M227.08,116.09a2.22,2.22,0,0,1,.57-.72,1.22,1.22,0,0,1,.78-.26,1,1,0,0,1,.57.15l-.08.93a.24.24,0,0,1-.07.13.2.2,0,0,1-.13,0l-.22,0-.29,0a1.06,1.06,0,0,0-.37.06.92.92,0,0,0-.29.17,1.16,1.16,0,0,0-.23.27,2.71,2.71,0,0,0-.18.37v3.16h-1.23V115.2h.72a.4.4,0,0,1,.27.07.4.4,0,0,1,.1.24Z"/><path class="cls-1" d="M229.46,115.92a3,3,0,0,1,2.13-.81,2.1,2.1,0,0,1,.81.15,1.73,1.73,0,0,1,.6.41,1.77,1.77,0,0,1,.37.63,2.41,2.41,0,0,1,.13.8v3.24h-.56a.57.57,0,0,1-.27-.05.36.36,0,0,1-.15-.21l-.11-.37a4.29,4.29,0,0,1-.38.31,2.19,2.19,0,0,1-.39.22,2.07,2.07,0,0,1-.43.14,2.5,2.5,0,0,1-.5,0,2,2,0,0,1-.6-.09,1.33,1.33,0,0,1-.48-.26,1.18,1.18,0,0,1-.31-.44,1.55,1.55,0,0,1-.11-.61,1.2,1.2,0,0,1,.06-.39,1.12,1.12,0,0,1,.21-.37,1.76,1.76,0,0,1,.38-.33,2.51,2.51,0,0,1,.58-.27,4.88,4.88,0,0,1,.8-.19,8,8,0,0,1,1-.09v-.3a1.12,1.12,0,0,0-.22-.76.8.8,0,0,0-.63-.25,1.5,1.5,0,0,0-.5.07,2.12,2.12,0,0,0-.35.16l-.27.16a.53.53,0,0,1-.27.07.36.36,0,0,1-.22-.07.58.58,0,0,1-.15-.16Zm2.83,2.23a6.67,6.67,0,0,0-.9.09,2.39,2.39,0,0,0-.58.17.76.76,0,0,0-.31.25.61.61,0,0,0,.1.77.83.83,0,0,0,.5.14,1.47,1.47,0,0,0,.66-.14,1.94,1.94,0,0,0,.54-.42Z"/><path class="cls-1" d="M237.78,116.2a.32.32,0,0,1-.11.11.27.27,0,0,1-.14,0,.44.44,0,0,1-.19-.05l-.24-.11-.31-.11a1.48,1.48,0,0,0-.41-.05.94.94,0,0,0-.57.16.48.48,0,0,0-.21.4.38.38,0,0,0,.11.28,1,1,0,0,0,.28.2,2.79,2.79,0,0,0,.4.15l.46.15.46.18a1.62,1.62,0,0,1,.4.26,1.22,1.22,0,0,1,.29.38,1.2,1.2,0,0,1,.11.53,1.73,1.73,0,0,1-.13.68,1.47,1.47,0,0,1-.39.54,1.86,1.86,0,0,1-.64.36,3,3,0,0,1-1.4.08,3.11,3.11,0,0,1-.49-.13,2.61,2.61,0,0,1-.43-.2,2.1,2.1,0,0,1-.35-.25l.29-.47a.41.41,0,0,1,.13-.13.37.37,0,0,1,.19,0,.39.39,0,0,1,.22.07l.24.14a2,2,0,0,0,.32.14,1.41,1.41,0,0,0,.46.06,1.2,1.2,0,0,0,.38-.05.8.8,0,0,0,.26-.14.52.52,0,0,0,.15-.2.6.6,0,0,0,0-.23.42.42,0,0,0-.11-.3.94.94,0,0,0-.29-.2,2.73,2.73,0,0,0-.4-.15l-.47-.15a4.49,4.49,0,0,1-.46-.19,1.57,1.57,0,0,1-.4-.27,1.22,1.22,0,0,1-.29-.4,1.41,1.41,0,0,1-.11-.58,1.48,1.48,0,0,1,.13-.6,1.4,1.4,0,0,1,.37-.5,1.79,1.79,0,0,1,.6-.34,2.5,2.5,0,0,1,.84-.13,2.55,2.55,0,0,1,1,.17,2.18,2.18,0,0,1,.73.46Z"/><path class="cls-1" d="M242.18,116.2a.33.33,0,0,1-.1.11.28.28,0,0,1-.14,0,.45.45,0,0,1-.19-.05l-.24-.11-.31-.11a1.47,1.47,0,0,0-.41-.05.94.94,0,0,0-.57.16.48.48,0,0,0-.21.4.39.39,0,0,0,.11.28,1,1,0,0,0,.29.2,2.8,2.8,0,0,0,.4.15l.46.15.46.18a1.62,1.62,0,0,1,.4.26,1.21,1.21,0,0,1,.28.38,1.19,1.19,0,0,1,.11.53,1.73,1.73,0,0,1-.13.68,1.49,1.49,0,0,1-.39.54,1.88,1.88,0,0,1-.64.36,3,3,0,0,1-1.4.08,3.12,3.12,0,0,1-.48-.13,2.66,2.66,0,0,1-.43-.2,2.12,2.12,0,0,1-.35-.25l.28-.47a.42.42,0,0,1,.13-.13.37.37,0,0,1,.19,0,.39.39,0,0,1,.22.07l.24.14a2,2,0,0,0,.32.14,1.41,1.41,0,0,0,.46.06,1.19,1.19,0,0,0,.38-.05.8.8,0,0,0,.26-.14.52.52,0,0,0,.15-.2.61.61,0,0,0,0-.23.42.42,0,0,0-.11-.3.93.93,0,0,0-.28-.2,2.78,2.78,0,0,0-.41-.15l-.46-.15a4.45,4.45,0,0,1-.47-.19,1.56,1.56,0,0,1-.4-.27,1.23,1.23,0,0,1-.29-.4,1.41,1.41,0,0,1-.11-.58,1.48,1.48,0,0,1,.13-.6,1.4,1.4,0,0,1,.37-.5,1.79,1.79,0,0,1,.61-.34,2.49,2.49,0,0,1,.84-.13,2.55,2.55,0,0,1,1,.17,2.18,2.18,0,0,1,.73.46Z"/><path class="cls-1" d="M265.59,102.42a.47.47,0,0,1-.13.15.28.28,0,0,1-.17,0,.42.42,0,0,1-.23-.08l-.29-.17a2.39,2.39,0,0,0-.4-.17,1.67,1.67,0,0,0-.54-.08,1.61,1.61,0,0,0-.49.07,1,1,0,0,0-.35.19.75.75,0,0,0-.21.29.94.94,0,0,0-.07.37.63.63,0,0,0,.14.42,1.19,1.19,0,0,0,.38.29,3.51,3.51,0,0,0,.54.21l.62.2a5.55,5.55,0,0,1,.61.25,2.11,2.11,0,0,1,.54.36,1.61,1.61,0,0,1,.38.53,1.85,1.85,0,0,1,.14.76,2.48,2.48,0,0,1-.17.92,2.11,2.11,0,0,1-.49.75,2.3,2.3,0,0,1-.79.5,2.89,2.89,0,0,1-1.06.18,3.45,3.45,0,0,1-.68-.07,3.67,3.67,0,0,1-.64-.19,3.44,3.44,0,0,1-.58-.3,2.77,2.77,0,0,1-.48-.39l.4-.65a.44.44,0,0,1,.13-.12.33.33,0,0,1,.17,0,.48.48,0,0,1,.27.1l.34.23a2.73,2.73,0,0,0,.47.23,1.79,1.79,0,0,0,.64.1,1.32,1.32,0,0,0,.89-.27,1,1,0,0,0,.31-.78.72.72,0,0,0-.14-.46,1.14,1.14,0,0,0-.38-.3,2.79,2.79,0,0,0-.54-.21l-.61-.18a5.52,5.52,0,0,1-.61-.24,2,2,0,0,1-.54-.37,1.67,1.67,0,0,1-.38-.56,2.14,2.14,0,0,1-.14-.83,2,2,0,0,1,.16-.77,2,2,0,0,1,.46-.67,2.26,2.26,0,0,1,.74-.46,2.71,2.71,0,0,1,1-.18,3.37,3.37,0,0,1,1.18.2,2.66,2.66,0,0,1,.92.56Z"/><path class="cls-1" d="M270.69,104.29a.56.56,0,0,1-.11.11.24.24,0,0,1-.15,0,.34.34,0,0,1-.19-.06l-.22-.13a1.62,1.62,0,0,0-.3-.13,1.37,1.37,0,0,0-.43-.06,1.31,1.31,0,0,0-.57.12,1.08,1.08,0,0,0-.41.34,1.52,1.52,0,0,0-.24.53,2.88,2.88,0,0,0-.08.71,2.78,2.78,0,0,0,.09.73,1.56,1.56,0,0,0,.25.54,1.08,1.08,0,0,0,.4.33,1.21,1.21,0,0,0,.53.11,1.3,1.3,0,0,0,.48-.07,1.51,1.51,0,0,0,.31-.16l.22-.16a.33.33,0,0,1,.21-.07.25.25,0,0,1,.23.12l.35.45a2.24,2.24,0,0,1-.44.4,2.42,2.42,0,0,1-.5.26,2.55,2.55,0,0,1-.53.14,3.77,3.77,0,0,1-.54,0,2.28,2.28,0,0,1-.9-.18,2.11,2.11,0,0,1-.73-.52,2.47,2.47,0,0,1-.5-.83,3.21,3.21,0,0,1-.18-1.12,3.27,3.27,0,0,1,.16-1,2.35,2.35,0,0,1,.48-.83,2.18,2.18,0,0,1,.78-.55,2.7,2.7,0,0,1,1.07-.2,2.55,2.55,0,0,1,1,.18,2.47,2.47,0,0,1,.78.53Z"/><path class="cls-1" d="M271.72,103.92a3,3,0,0,1,2.13-.81,2.09,2.09,0,0,1,.8.15,1.73,1.73,0,0,1,.6.41,1.76,1.76,0,0,1,.37.63,2.41,2.41,0,0,1,.13.8v3.24h-.56a.56.56,0,0,1-.27-.05.36.36,0,0,1-.15-.21l-.11-.37a4.29,4.29,0,0,1-.38.31,2.18,2.18,0,0,1-.38.22,2.09,2.09,0,0,1-.43.14,2.49,2.49,0,0,1-.5,0,2,2,0,0,1-.6-.09,1.32,1.32,0,0,1-.47-.26,1.18,1.18,0,0,1-.31-.44,1.55,1.55,0,0,1-.11-.61,1.21,1.21,0,0,1,.06-.39,1.12,1.12,0,0,1,.21-.37,1.75,1.75,0,0,1,.38-.33,2.5,2.5,0,0,1,.58-.27,4.88,4.88,0,0,1,.8-.19,8,8,0,0,1,1-.09v-.3a1.12,1.12,0,0,0-.22-.76.8.8,0,0,0-.63-.25,1.5,1.5,0,0,0-.5.07,2.1,2.1,0,0,0-.35.16l-.27.16a.54.54,0,0,1-.27.07.36.36,0,0,1-.22-.07.58.58,0,0,1-.14-.16Zm2.83,2.23a6.65,6.65,0,0,0-.9.09,2.38,2.38,0,0,0-.58.17.76.76,0,0,0-.32.25.61.61,0,0,0,.1.77.83.83,0,0,0,.5.14,1.46,1.46,0,0,0,.66-.14,1.94,1.94,0,0,0,.54-.42Z"/><path class="cls-1" d="M278.16,100.9v7.43h-1.23V100.9Z"/><path class="cls-1" d="M280.35,105.92a2.43,2.43,0,0,0,.14.68,1.39,1.39,0,0,0,.29.48,1.13,1.13,0,0,0,.43.28,1.53,1.53,0,0,0,.55.09,1.69,1.69,0,0,0,.52-.07,2.36,2.36,0,0,0,.38-.16l.29-.15a.48.48,0,0,1,.24-.07.26.26,0,0,1,.23.12l.35.45a2.06,2.06,0,0,1-.46.4,2.59,2.59,0,0,1-.53.26,2.93,2.93,0,0,1-.56.14,4.1,4.1,0,0,1-.56,0,2.74,2.74,0,0,1-1-.18,2.24,2.24,0,0,1-.8-.52,2.48,2.48,0,0,1-.54-.86,3.33,3.33,0,0,1-.19-1.19,2.84,2.84,0,0,1,.17-1,2.37,2.37,0,0,1,.49-.8,2.29,2.29,0,0,1,.78-.54,2.56,2.56,0,0,1,1-.2,2.51,2.51,0,0,1,.9.16,2,2,0,0,1,.71.45,2.1,2.1,0,0,1,.46.73,2.72,2.72,0,0,1,.17,1,.8.8,0,0,1-.06.38.25.25,0,0,1-.23.1Zm2.35-.74a1.49,1.49,0,0,0-.07-.45,1.08,1.08,0,0,0-.2-.37,1,1,0,0,0-.34-.25,1.18,1.18,0,0,0-.48-.09,1.15,1.15,0,0,0-.84.31,1.49,1.49,0,0,0-.39.87Z"/><path class="cls-1" d="M258.47,114.17v2.14h2.71v1.07h-2.71v2.95h-1.35V113.1h4.56v1.07Z"/><path class="cls-1" d="M264,113.71a.7.7,0,0,1-.06.3.84.84,0,0,1-.17.25.83.83,0,0,1-.25.17.79.79,0,0,1-.31.06.76.76,0,0,1-.3-.06.8.8,0,0,1-.25-.17.81.81,0,0,1-.17-.25.72.72,0,0,1-.06-.3.79.79,0,0,1,.06-.31.78.78,0,0,1,.42-.42.74.74,0,0,1,.3-.06.77.77,0,0,1,.31.06.8.8,0,0,1,.43.42A.76.76,0,0,1,264,113.71Zm-.17,1.5v5.13h-1.24V115.2Z"/><path class="cls-1" d="M269.62,115.38v.46c0,.15-.09.24-.27.27l-.46.08a1.56,1.56,0,0,1,.1.58,1.51,1.51,0,0,1-.57,1.21,2,2,0,0,1-.64.33,2.6,2.6,0,0,1-.79.12h-.29l-.27,0q-.24.15-.24.33a.24.24,0,0,0,.14.23,1.17,1.17,0,0,0,.38.1l.54,0,.61,0a5.24,5.24,0,0,1,.62.09,1.82,1.82,0,0,1,.54.2,1.05,1.05,0,0,1,.38.37,1.13,1.13,0,0,1,.14.6,1.41,1.41,0,0,1-.17.66,1.78,1.78,0,0,1-.49.57,2.54,2.54,0,0,1-.78.4,3.36,3.36,0,0,1-1.05.15,4,4,0,0,1-1-.11,2.42,2.42,0,0,1-.71-.3,1.3,1.3,0,0,1-.42-.43,1,1,0,0,1-.14-.51.87.87,0,0,1,.22-.6,1.51,1.51,0,0,1,.6-.39.85.85,0,0,1-.32-.28.79.79,0,0,1-.12-.46.73.73,0,0,1,0-.24,1,1,0,0,1,.13-.24,1.17,1.17,0,0,1,.21-.23,1.45,1.45,0,0,1,.29-.19,1.62,1.62,0,0,1-.61-.56,1.49,1.49,0,0,1-.22-.82,1.52,1.52,0,0,1,.15-.69,1.54,1.54,0,0,1,.42-.52,1.94,1.94,0,0,1,.65-.33,2.76,2.76,0,0,1,.81-.12,2.73,2.73,0,0,1,.62.07,2.14,2.14,0,0,1,.53.2Zm-1.23,5.19a.35.35,0,0,0-.09-.25.61.61,0,0,0-.25-.15,1.88,1.88,0,0,0-.36-.08l-.44,0-.48,0-.48,0a1.14,1.14,0,0,0-.33.27.55.55,0,0,0-.13.36.5.5,0,0,0,.07.25.57.57,0,0,0,.22.2,1.26,1.26,0,0,0,.38.13,3.46,3.46,0,0,0,1.17,0,1.44,1.44,0,0,0,.41-.15.63.63,0,0,0,.24-.22A.54.54,0,0,0,268.39,120.56Zm-1.4-2.92a1.18,1.18,0,0,0,.4-.06.79.79,0,0,0,.28-.17.7.7,0,0,0,.17-.26,1,1,0,0,0,.06-.34.81.81,0,0,0-.23-.6,1.16,1.16,0,0,0-1.36,0,.81.81,0,0,0-.23.6,1,1,0,0,0,.06.33.73.73,0,0,0,.17.27.77.77,0,0,0,.28.18A1.18,1.18,0,0,0,267,117.64Z"/><path class="cls-1" d="M274.82,115.2v5.13h-.75a.29.29,0,0,1-.31-.22l-.09-.41a2.78,2.78,0,0,1-.69.52,1.93,1.93,0,0,1-.9.2,1.81,1.81,0,0,1-.74-.14,1.49,1.49,0,0,1-.54-.4,1.77,1.77,0,0,1-.33-.62,2.61,2.61,0,0,1-.11-.79V115.2h1.23v3.26a1.1,1.1,0,0,0,.22.73.81.81,0,0,0,.65.26,1.31,1.31,0,0,0,.6-.14,2.13,2.13,0,0,0,.53-.39V115.2Z"/><path class="cls-1" d="M277.2,116.09a2.23,2.23,0,0,1,.57-.72,1.22,1.22,0,0,1,.78-.26,1,1,0,0,1,.57.15l-.08.93a.24.24,0,0,1-.07.13.2.2,0,0,1-.13,0l-.22,0-.29,0a1.05,1.05,0,0,0-.36.06.92.92,0,0,0-.29.17,1.16,1.16,0,0,0-.22.27,2.65,2.65,0,0,0-.18.37v3.16H276V115.2h.73a.3.3,0,0,1,.36.31Z"/><path class="cls-1" d="M280.57,117.92a2.43,2.43,0,0,0,.14.68,1.39,1.39,0,0,0,.29.48,1.13,1.13,0,0,0,.43.28,1.53,1.53,0,0,0,.55.09,1.69,1.69,0,0,0,.52-.07,2.36,2.36,0,0,0,.38-.16l.29-.15a.48.48,0,0,1,.24-.07.26.26,0,0,1,.23.12l.35.45a2.06,2.06,0,0,1-.46.4,2.59,2.59,0,0,1-.53.26,2.93,2.93,0,0,1-.56.14,4.1,4.1,0,0,1-.56,0,2.74,2.74,0,0,1-1-.18,2.24,2.24,0,0,1-.8-.52,2.48,2.48,0,0,1-.54-.86,3.33,3.33,0,0,1-.19-1.19,2.84,2.84,0,0,1,.17-1,2.37,2.37,0,0,1,.49-.8,2.29,2.29,0,0,1,.78-.54,2.56,2.56,0,0,1,1-.2,2.51,2.51,0,0,1,.9.16,2,2,0,0,1,.71.45,2.1,2.1,0,0,1,.46.73,2.72,2.72,0,0,1,.17,1,.8.8,0,0,1-.06.38.25.25,0,0,1-.23.1Zm2.35-.74a1.49,1.49,0,0,0-.07-.45,1.08,1.08,0,0,0-.2-.37,1,1,0,0,0-.34-.25,1.18,1.18,0,0,0-.48-.09,1.15,1.15,0,0,0-.84.31,1.49,1.49,0,0,0-.39.87Z"/><path class="cls-1" d="M288.09,116.2a.32.32,0,0,1-.11.11.27.27,0,0,1-.14,0,.44.44,0,0,1-.19-.05l-.24-.11-.31-.11a1.48,1.48,0,0,0-.41-.05.94.94,0,0,0-.57.16.48.48,0,0,0-.21.4.38.38,0,0,0,.11.28,1,1,0,0,0,.28.2,2.79,2.79,0,0,0,.4.15l.46.15.46.18a1.62,1.62,0,0,1,.4.26,1.22,1.22,0,0,1,.29.38,1.2,1.2,0,0,1,.11.53,1.73,1.73,0,0,1-.13.68,1.47,1.47,0,0,1-.39.54,1.86,1.86,0,0,1-.64.36,3,3,0,0,1-1.4.08,3.11,3.11,0,0,1-.49-.13,2.61,2.61,0,0,1-.43-.2,2.1,2.1,0,0,1-.35-.25l.29-.47a.41.41,0,0,1,.13-.13.37.37,0,0,1,.19,0,.39.39,0,0,1,.22.07l.24.14a2,2,0,0,0,.32.14,1.41,1.41,0,0,0,.46.06,1.2,1.2,0,0,0,.38-.05.8.8,0,0,0,.26-.14.52.52,0,0,0,.15-.2.6.6,0,0,0,0-.23.42.42,0,0,0-.11-.3.94.94,0,0,0-.29-.2,2.73,2.73,0,0,0-.4-.15l-.47-.15a4.49,4.49,0,0,1-.46-.19,1.57,1.57,0,0,1-.4-.27,1.22,1.22,0,0,1-.29-.4,1.41,1.41,0,0,1-.11-.58,1.48,1.48,0,0,1,.13-.6,1.4,1.4,0,0,1,.37-.5,1.79,1.79,0,0,1,.6-.34,2.5,2.5,0,0,1,.84-.13,2.55,2.55,0,0,1,1,.17,2.18,2.18,0,0,1,.73.46Z"/><path class="cls-1" d="M498,14.93v7.23h-1.18V17.49c0-.19,0-.39,0-.6L494.69,21a.5.5,0,0,1-.47.29H494a.5.5,0,0,1-.47-.29l-2.21-4.12c0,.11,0,.22,0,.32s0,.21,0,.29v4.67h-1.19V14.93h1.17l.12,0a.27.27,0,0,1,.1.06.56.56,0,0,1,.08.12l2.17,4c.06.11.11.22.16.33l.14.35.15-.36c0-.11.1-.22.16-.33l2.13-4a.5.5,0,0,1,.08-.12l.1-.06.12,0H498Z"/><path class="cls-1" d="M500.24,19.75a2.42,2.42,0,0,0,.14.68,1.39,1.39,0,0,0,.29.47,1.12,1.12,0,0,0,.43.28,1.53,1.53,0,0,0,.55.09,1.69,1.69,0,0,0,.52-.07,2.47,2.47,0,0,0,.38-.16l.29-.16a.48.48,0,0,1,.24-.07.26.26,0,0,1,.23.12l.35.45a2.09,2.09,0,0,1-.46.4,2.66,2.66,0,0,1-.53.26,2.91,2.91,0,0,1-.57.14,3.94,3.94,0,0,1-.56,0,2.76,2.76,0,0,1-1-.18,2.23,2.23,0,0,1-.8-.53,2.46,2.46,0,0,1-.54-.86,3.31,3.31,0,0,1-.2-1.19,2.84,2.84,0,0,1,.17-1,2.37,2.37,0,0,1,.49-.8,2.3,2.3,0,0,1,.78-.54,2.56,2.56,0,0,1,1-.2,2.5,2.5,0,0,1,.89.15,1.94,1.94,0,0,1,.71.45,2.07,2.07,0,0,1,.46.73,2.73,2.73,0,0,1,.17,1,.8.8,0,0,1-.06.38.25.25,0,0,1-.23.1Zm2.35-.74a1.5,1.5,0,0,0-.07-.45,1.07,1.07,0,0,0-.2-.37,1,1,0,0,0-.34-.25,1.2,1.2,0,0,0-.48-.09,1.14,1.14,0,0,0-.84.3,1.5,1.5,0,0,0-.39.87Z"/><path class="cls-1" d="M505.79,17.92a2.21,2.21,0,0,1,.57-.72,1.22,1.22,0,0,1,.78-.26,1,1,0,0,1,.57.16l-.08.92a.23.23,0,0,1-.07.13.2.2,0,0,1-.13,0l-.22,0-.29,0a1,1,0,0,0-.37.06.93.93,0,0,0-.29.17,1.2,1.2,0,0,0-.22.27,2.69,2.69,0,0,0-.18.36v3.16h-1.23V17h.72a.3.3,0,0,1,.37.31Z"/><path class="cls-1" d="M512.8,17.2v.46c0,.15-.09.24-.27.27l-.46.08a1.58,1.58,0,0,1,.1.58,1.5,1.5,0,0,1-.58,1.21,2,2,0,0,1-.64.33,2.57,2.57,0,0,1-.79.12h-.29l-.28,0c-.16.1-.24.21-.24.33a.24.24,0,0,0,.14.23,1.17,1.17,0,0,0,.38.1l.54,0,.62,0a5.07,5.07,0,0,1,.62.09,1.82,1.82,0,0,1,.53.2,1,1,0,0,1,.38.37,1.13,1.13,0,0,1,.14.6,1.41,1.41,0,0,1-.17.66,1.77,1.77,0,0,1-.48.57,2.53,2.53,0,0,1-.78.4,3.36,3.36,0,0,1-1.05.15,4.05,4.05,0,0,1-1-.11,2.4,2.4,0,0,1-.71-.3,1.29,1.29,0,0,1-.42-.43,1,1,0,0,1-.14-.51.87.87,0,0,1,.22-.6,1.49,1.49,0,0,1,.6-.39.87.87,0,0,1-.33-.28.8.8,0,0,1-.12-.46.76.76,0,0,1,0-.24,1.08,1.08,0,0,1,.13-.24,1.18,1.18,0,0,1,.21-.23A1.4,1.4,0,0,1,509,20a1.61,1.61,0,0,1-.61-.56,1.49,1.49,0,0,1-.22-.82,1.5,1.5,0,0,1,.58-1.21,1.94,1.94,0,0,1,.64-.33,2.91,2.91,0,0,1,1.43,0,2.14,2.14,0,0,1,.53.2Zm-1.23,5.19a.34.34,0,0,0-.09-.25.59.59,0,0,0-.25-.15,1.84,1.84,0,0,0-.36-.08l-.44,0-.48,0-.48,0a1.15,1.15,0,0,0-.33.27.54.54,0,0,0-.13.36.5.5,0,0,0,.07.25.57.57,0,0,0,.21.2,1.3,1.3,0,0,0,.38.13,3.43,3.43,0,0,0,1.17,0,1.47,1.47,0,0,0,.41-.14.64.64,0,0,0,.24-.22A.54.54,0,0,0,511.57,22.39Zm-1.39-2.92a1.18,1.18,0,0,0,.4-.06.79.79,0,0,0,.28-.17A.71.71,0,0,0,511,19a1,1,0,0,0,.06-.34.8.8,0,0,0-.23-.6,1.16,1.16,0,0,0-1.37,0,.8.8,0,0,0-.23.6,1,1,0,0,0,.06.33.72.72,0,0,0,.17.27.74.74,0,0,0,.29.18A1.17,1.17,0,0,0,510.18,19.47Z"/><path class="cls-1" d="M514.44,19.75a2.42,2.42,0,0,0,.14.68,1.39,1.39,0,0,0,.29.47,1.12,1.12,0,0,0,.43.28,1.53,1.53,0,0,0,.55.09,1.69,1.69,0,0,0,.52-.07,2.47,2.47,0,0,0,.38-.16l.29-.16a.48.48,0,0,1,.24-.07.26.26,0,0,1,.23.12l.35.45a2.09,2.09,0,0,1-.46.4,2.66,2.66,0,0,1-.53.26,2.91,2.91,0,0,1-.57.14,3.94,3.94,0,0,1-.56,0,2.76,2.76,0,0,1-1-.18,2.23,2.23,0,0,1-.8-.53,2.46,2.46,0,0,1-.54-.86,3.31,3.31,0,0,1-.2-1.19,2.84,2.84,0,0,1,.17-1,2.37,2.37,0,0,1,.49-.8,2.3,2.3,0,0,1,.78-.54,2.56,2.56,0,0,1,1-.2,2.5,2.5,0,0,1,.89.15,1.94,1.94,0,0,1,.71.45,2.07,2.07,0,0,1,.46.73,2.73,2.73,0,0,1,.17,1,.8.8,0,0,1-.06.38.25.25,0,0,1-.23.1ZM516.8,19a1.5,1.5,0,0,0-.07-.45,1.07,1.07,0,0,0-.2-.37,1,1,0,0,0-.34-.25,1.2,1.2,0,0,0-.48-.09,1.14,1.14,0,0,0-.84.3,1.5,1.5,0,0,0-.39.87Z"/><path class="cls-1" d="M523.29,14.73v7.43h-.75a.29.29,0,0,1-.31-.22l-.11-.5a2.56,2.56,0,0,1-.71.58,1.93,1.93,0,0,1-.94.22,1.69,1.69,0,0,1-.77-.18,1.71,1.71,0,0,1-.6-.51,2.42,2.42,0,0,1-.39-.82,4.14,4.14,0,0,1-.14-1.12,3.49,3.49,0,0,1,.16-1.06,2.58,2.58,0,0,1,.45-.85,2.07,2.07,0,0,1,.69-.56,2,2,0,0,1,.91-.2,1.81,1.81,0,0,1,.74.13,1.89,1.89,0,0,1,.54.37V14.73Zm-1.23,3.61a1.22,1.22,0,0,0-.46-.36,1.35,1.35,0,0,0-.53-.11,1.18,1.18,0,0,0-.5.11,1,1,0,0,0-.38.32,1.51,1.51,0,0,0-.25.54,3.11,3.11,0,0,0-.08.77,3.46,3.46,0,0,0,.07.76,1.48,1.48,0,0,0,.21.51.79.79,0,0,0,.33.29,1,1,0,0,0,.43.09,1.27,1.27,0,0,0,.66-.16,2,2,0,0,0,.51-.46Z"/><path class="cls-1" d="M524.53,21.48a.77.77,0,0,1,.06-.29.7.7,0,0,1,.16-.24.82.82,0,0,1,.24-.16.77.77,0,0,1,.3-.06.76.76,0,0,1,.29.06.82.82,0,0,1,.24.16.73.73,0,0,1,.16.24.75.75,0,0,1-.16.83.78.78,0,0,1-.24.16.8.8,0,0,1-.29.06.81.81,0,0,1-.3-.06.78.78,0,0,1-.24-.16.71.71,0,0,1-.16-.24A.77.77,0,0,1,524.53,21.48Zm1.36-6.55v2.86a8.66,8.66,0,0,1,0,.89q0,.44-.12.93h-.84q-.07-.49-.12-.93a8.66,8.66,0,0,1,0-.89V14.93Z"/><circle class="cls-3" cx="440.76" cy="86.46" r="8.41"/><circle class="cls-3" cx="398.7" cy="86.46" r="8.41"/><circle class="cls-3" cx="356.64" cy="86.46" r="8.41"/><circle class="cls-3" cx="314.59" cy="86.46" r="8.41"/><circle class="cls-3" cx="272.53" cy="86.46" r="8.41"/><circle class="cls-3" cx="230.48" cy="86.46" r="8.41"/><circle class="cls-3" cx="188.42" cy="86.46" r="8.41"/><circle class="cls-1" cx="508.05" cy="35.99" r="8.41"/><circle class="cls-1" cx="121.13" cy="35.99" r="8.41"/></svg>